<?xml version="1.0" encoding="UTF-8" standalone="no"?>
<!-- Created with Inkscape (http://www.inkscape.org/) -->

<svg
   xmlns:dc="http://purl.org/dc/elements/1.1/"
   xmlns:cc="http://creativecommons.org/ns#"
   xmlns:rdf="http://www.w3.org/1999/02/22-rdf-syntax-ns#"
   xmlns:svg="http://www.w3.org/2000/svg"
   xmlns="http://www.w3.org/2000/svg"
   xmlns:xlink="http://www.w3.org/1999/xlink"
   xmlns:sodipodi="http://sodipodi.sourceforge.net/DTD/sodipodi-0.dtd"
   xmlns:inkscape="http://www.inkscape.org/namespaces/inkscape"
   version="1.1"
   width="100"
   height="100"
   id="svg5020"
   viewBox="0 0 100 100"
   preserveAspectRatio="none"
   inkscape:version="0.91 r13725"
   sodipodi:docname="square.svg">
  <metadata
     id="metadata19">
    <rdf:RDF>
      <cc:Work
         rdf:about="">
        <dc:format>image/svg+xml</dc:format>
        <dc:type
           rdf:resource="http://purl.org/dc/dcmitype/StillImage" />
        <dc:title />
      </cc:Work>
    </rdf:RDF>
  </metadata>
  <sodipodi:namedview
     pagecolor="#ffffff"
     bordercolor="#666666"
     borderopacity="1"
     objecttolerance="10"
     gridtolerance="10"
     guidetolerance="10"
     inkscape:pageopacity="0"
     inkscape:pageshadow="2"
     inkscape:window-width="1396"
     inkscape:window-height="1012"
     id="namedview17"
     showgrid="false"
     inkscape:zoom="4.4791993"
     inkscape:cx="20.767328"
     inkscape:cy="46.729758"
     inkscape:window-x="2256"
     inkscape:window-y="138"
     inkscape:window-maximized="0"
     inkscape:current-layer="svg5020"
     showguides="true"
     inkscape:guide-bbox="true">
    <sodipodi:guide
       orientation="0,1"
       position="106.26899,0.44650838"
       id="guide3932" />
    <sodipodi:guide
       orientation="1,0"
       position="99.571368,-8.4836591"
       id="guide3934" />
    <sodipodi:guide
       orientation="1,0"
       position="0.22325419,68.539036"
       id="guide3946" />
  </sodipodi:namedview>
  <defs
     id="defs5022">
    <filter
       x="-0.26370296"
       y="-0.29216129"
       width="1.5274059"
       height="1.5843226"
       color-interpolation-filters="sRGB"
       id="filter20257">
      <feGaussianBlur
         stdDeviation="8.4844688"
         id="feGaussianBlur20259" />
    </filter>
    <linearGradient
       x1="302.36649"
       y1="85.341019"
       x2="273.78458"
       y2="109.91143"
       id="linearGradient20265"
       xlink:href="#linearGradient13263"
       gradientUnits="userSpaceOnUse"
       gradientTransform="translate(7.0201173,-1.0028739)" />
    <linearGradient
       id="linearGradient13263">
      <stop
         id="stop1"
         style="stop-color:#a9c3e4;stop-opacity:1"
         offset="0" />
      <stop
         id="stop2"
         style="stop-color:#3465a4;stop-opacity:1"
         offset="1" />
    </linearGradient>
    <linearGradient
       inkscape:collect="always"
       xlink:href="#linearGradient13263"
       id="linearGradient3895"
       gradientUnits="userSpaceOnUse"
       gradientTransform="translate(7.0201173,-1.0028739)"
       x1="302.36649"
       y1="85.341019"
       x2="273.78458"
       y2="109.91143" />
    <linearGradient
       inkscape:collect="always"
       xlink:href="#linearGradient13263"
       id="linearGradient3903"
       gradientUnits="userSpaceOnUse"
       gradientTransform="translate(7.0201173,-1.0028739)"
       x1="302.36649"
       y1="85.341019"
       x2="273.78458"
       y2="109.91143" />
    <linearGradient
       inkscape:collect="always"
       xlink:href="#linearGradient13263"
       id="linearGradient3910"
       gradientUnits="userSpaceOnUse"
       gradientTransform="translate(7.0201173,-1.0028739)"
       x1="302.36649"
       y1="85.341019"
       x2="273.78458"
       y2="109.91143" />
    <linearGradient
       inkscape:collect="always"
       xlink:href="#linearGradient13263"
       id="linearGradient3913"
       gradientUnits="userSpaceOnUse"
       gradientTransform="matrix(1.0353074,0,0,1.1486622,-226.39584,-83.999193)"
       x1="302.36649"
       y1="85.341019"
       x2="273.78458"
       y2="109.91143" />
    <linearGradient
       inkscape:collect="always"
       xlink:href="#linearGradient13263"
       id="linearGradient3930"
       gradientUnits="userSpaceOnUse"
       gradientTransform="matrix(1.0353074,0,0,1.1486622,-226.39584,-83.999193)"
       x1="302.36649"
       y1="85.341019"
       x2="273.78458"
       y2="109.91143" />
    <linearGradient
       inkscape:collect="always"
       xlink:href="#linearGradient13263"
       id="linearGradient3937"
       gradientUnits="userSpaceOnUse"
       gradientTransform="matrix(1.2223334,0,0,1.3561655,-277.20531,-108.66092)"
       x1="302.36649"
       y1="85.341019"
       x2="273.78458"
       y2="109.91143" />
    <linearGradient
       inkscape:collect="always"
       xlink:href="#linearGradient13263"
       id="linearGradient3944"
       gradientUnits="userSpaceOnUse"
       gradientTransform="matrix(1.2223334,0,0,1.3561655,-277.20531,-108.66092)"
       x1="302.36649"
       y1="85.341019"
       x2="273.78458"
       y2="109.91143" />
    <linearGradient
       inkscape:collect="always"
       xlink:href="#linearGradient13263"
       id="linearGradient3949"
       gradientUnits="userSpaceOnUse"
       gradientTransform="matrix(1.234087,0,0,1.369206,-280.09067,-109.84092)"
       x1="302.36649"
       y1="85.341019"
       x2="273.78458"
       y2="109.91143" />
    <linearGradient
       inkscape:collect="always"
       xlink:href="#linearGradient13263"
       id="linearGradient3967"
       gradientUnits="userSpaceOnUse"
       gradientTransform="matrix(1.234087,0,0,1.369206,-280.09067,-109.84092)"
       x1="302.36649"
       y1="85.341019"
       x2="273.78458"
       y2="109.91143" />
    <linearGradient
       inkscape:collect="always"
       xlink:href="#linearGradient13263"
       id="linearGradient3975"
       gradientUnits="userSpaceOnUse"
       gradientTransform="matrix(1.234087,0,0,1.369206,-280.09067,-109.84092)"
       x1="302.36649"
       y1="85.341019"
       x2="273.78458"
       y2="109.91143" />
    <linearGradient
       inkscape:collect="always"
       xlink:href="#linearGradient13263"
       id="linearGradient3981"
       gradientUnits="userSpaceOnUse"
       gradientTransform="matrix(1.234087,0,0,1.369206,-280.09067,-109.84092)"
       x1="302.36649"
       y1="85.341019"
       x2="273.78458"
       y2="109.91143" />
    <linearGradient
       inkscape:collect="always"
       xlink:href="#linearGradient13263"
       id="linearGradient3984"
       gradientUnits="userSpaceOnUse"
       gradientTransform="matrix(1.1823136,0,0,1.311764,-268.33186,-100.78716)"
       x1="302.36649"
       y1="85.341019"
       x2="273.78458"
       y2="109.91143" />
  </defs>
  <rect
     width="100"
     height="100"
     x="-0.0098983888"
     y="0.0098999729"
     id="border"
     style="opacity:0.64285715;fill:none;stroke:none"
     inkscape:export-filename="C:\Users\tempadmin\Desktop\Forme SVG\png\square_after_1.png"
     inkscape:export-xdpi="90"
     inkscape:export-ydpi="90" />
  <rect
     style="fill:none;fill-rule:evenodd;stroke:#000000;stroke-width:0px;stroke-linecap:butt;stroke-linejoin:miter;stroke-opacity:1"
     id="externalBorder"
     width="99"
     height="99"
     x="0.2"
     y="0.2" />
  <path
     inkscape:connector-curvature="0"
     d="m 22.226681,6.9988016 c -3.992408,3.8776464 -6.047859,9.1249724 -6.047859,14.7128514 0,5.47405 2.055451,10.723242 6.046926,14.71565 L 18.803417,39.96253 C 13.668988,34.8309 11.16382,28.099133 11.048125,21.370166 11.159155,15.097448 13.329367,8.5961383 18.688655,3.3488127 l 3.538026,3.6499889 z M 77.20044,96.421663 c -0.453449,0.229524 -0.908765,0.229524 -1.481641,0.229524 -1.597337,0 -3.19374,-0.91343 -3.762885,-2.623663 l -1.256783,-3.19374 -20.757912,0 -21.21696,0 -1.252118,3.19374 c -0.569145,1.711166 -2.165548,2.623663 -3.762885,2.623663 -0.573809,0 -1.028192,0 -1.482575,-0.229524 -2.170213,-0.797735 -3.19374,-3.19374 -2.395071,-5.359288 l 25.319465,-65.12879 3.877647,-2.624595 1.481641,0 3.76755,2.624595 25.319465,65.12879 c 0.796803,2.165548 -0.225791,4.561553 -2.396938,5.359288 z M 34.317736,13.386282 c -2.395072,2.28031 -3.652788,5.588812 -3.652788,8.554895 0,2.964216 1.142021,5.928433 3.307569,8.09678 l -3.19374,3.195606 c -3.078978,-3.081777 -5.019668,-7.41474 -5.019668,-11.634806 0,-3.994275 1.596404,-8.098646 5.249192,-11.6338726 l 3.309435,3.4213976 z m 11.516312,73.342197 -11.177624,-11.064728 -4.331096,11.064728 15.50872,0 z M 36.25376,71.442751 40.02131,75.09274 47.092697,68.136115 40.247102,61.292386 36.25376,71.442751 Z m 5.933098,-13.915116 7.754361,7.642398 7.759025,-7.642398 -15.513386,0 z m 14.824815,20.531188 -7.070454,-7.071387 -7.070454,7.071387 7.070454,7.070454 7.070454,-7.070454 z m -13.687459,-24.637425 12.778694,0 -6.391213,-16.539712 -6.387481,16.539712 z m 1.142954,-35.473563 c 0,-2.852253 2.395072,-5.247325 5.244527,-5.247325 2.967948,0 5.248259,2.395072 5.248259,5.247325 0,2.851321 -2.280311,5.247326 -5.248259,5.247326 -2.849455,-9.33e-4 -5.244527,-2.396005 -5.244527,-5.247326 z m 14.82948,43.686971 -6.502243,6.501309 7.071387,6.956625 3.422331,-3.306636 -3.991475,-10.151298 z m 9.806079,25.093673 -4.217267,-10.835204 -10.838004,10.835204 15.055271,0 z M 65.684128,30.267481 c 2.395072,-2.282176 3.648123,-5.588813 3.648123,-8.669657 0,-2.737492 -1.142954,-5.815537 -3.308502,-8.098646 l 3.19374,-3.19374 c 2.964217,3.308502 5.019668,7.414739 5.019668,11.748635 0,3.991475 -1.596404,8.098646 -5.13443,11.52191 l -3.418599,-3.308502 z m 12.091055,6.386547 c 3.991476,-3.877647 6.043195,-9.124039 5.928433,-14.712851 0.114762,-5.47685 -1.936024,-10.836138 -5.928433,-14.8304125 l 3.418599,-3.3057032 c 5.13443,5.0178017 7.643331,11.7486347 7.758093,18.4776017 -0.114762,6.272719 -2.28031,12.774029 -7.643331,17.906592 l -3.533361,-3.535227 z"
     id="path4" />
</svg>
