<?xml version="1.0" encoding="UTF-8" standalone="no"?>
<!-- Created with Inkscape (http://www.inkscape.org/) -->

<svg
   xmlns:dc="http://purl.org/dc/elements/1.1/"
   xmlns:cc="http://creativecommons.org/ns#"
   xmlns:rdf="http://www.w3.org/1999/02/22-rdf-syntax-ns#"
   xmlns:svg="http://www.w3.org/2000/svg"
   xmlns="http://www.w3.org/2000/svg"
   xmlns:xlink="http://www.w3.org/1999/xlink"
   xmlns:sodipodi="http://sodipodi.sourceforge.net/DTD/sodipodi-0.dtd"
   xmlns:inkscape="http://www.inkscape.org/namespaces/inkscape"
   version="1.1"
   width="100"
   height="100"
   id="svg5020"
   viewBox="0 0 100 100"
   preserveAspectRatio="none"
   inkscape:version="0.91 r13725"
   sodipodi:docname="antenna.svg">
  <metadata
     id="metadata19">
    <rdf:RDF>
      <cc:Work
         rdf:about="">
        <dc:format>image/svg+xml</dc:format>
        <dc:type
           rdf:resource="http://purl.org/dc/dcmitype/StillImage" />
        <dc:title />
      </cc:Work>
    </rdf:RDF>
  </metadata>
  <sodipodi:namedview
     pagecolor="#ffffff"
     bordercolor="#666666"
     borderopacity="1"
     objecttolerance="10"
     gridtolerance="10"
     guidetolerance="10"
     inkscape:pageopacity="0"
     inkscape:pageshadow="2"
     inkscape:window-width="1920"
     inkscape:window-height="1051"
     id="namedview17"
     showgrid="false"
     inkscape:zoom="8.9583986"
     inkscape:cx="20.244881"
     inkscape:cy="65.280162"
     inkscape:window-x="1920"
     inkscape:window-y="0"
     inkscape:window-maximized="1"
     inkscape:current-layer="svg5020"
     showguides="true"
     inkscape:guide-bbox="true">
    <sodipodi:guide
       orientation="0,1"
       position="106.26899,0.44650838"
       id="guide3932" />
    <sodipodi:guide
       orientation="1,0"
       position="99.571368,-8.4836591"
       id="guide3934" />
    <sodipodi:guide
       orientation="1,0"
       position="0.22325419,68.539036"
       id="guide3946" />
  </sodipodi:namedview>
  <defs
     id="defs5022">
    <filter
       x="-0.26370296"
       y="-0.29216129"
       width="1.5274059"
       height="1.5843226"
       color-interpolation-filters="sRGB"
       id="filter20257">
      <feGaussianBlur
         stdDeviation="8.4844688"
         id="feGaussianBlur20259" />
    </filter>
    <linearGradient
       x1="302.36649"
       y1="85.341019"
       x2="273.78458"
       y2="109.91143"
       id="linearGradient20265"
       xlink:href="#linearGradient13263"
       gradientUnits="userSpaceOnUse"
       gradientTransform="translate(7.0201173,-1.0028739)" />
    <linearGradient
       id="linearGradient13263">
      <stop
         id="stop1"
         style="stop-color:#a9c3e4;stop-opacity:1"
         offset="0" />
      <stop
         id="stop2"
         style="stop-color:#3465a4;stop-opacity:1"
         offset="1" />
    </linearGradient>
    <linearGradient
       inkscape:collect="always"
       xlink:href="#linearGradient13263"
       id="linearGradient3895"
       gradientUnits="userSpaceOnUse"
       gradientTransform="translate(7.0201173,-1.0028739)"
       x1="302.36649"
       y1="85.341019"
       x2="273.78458"
       y2="109.91143" />
    <linearGradient
       inkscape:collect="always"
       xlink:href="#linearGradient13263"
       id="linearGradient3903"
       gradientUnits="userSpaceOnUse"
       gradientTransform="translate(7.0201173,-1.0028739)"
       x1="302.36649"
       y1="85.341019"
       x2="273.78458"
       y2="109.91143" />
    <linearGradient
       inkscape:collect="always"
       xlink:href="#linearGradient13263"
       id="linearGradient3910"
       gradientUnits="userSpaceOnUse"
       gradientTransform="translate(7.0201173,-1.0028739)"
       x1="302.36649"
       y1="85.341019"
       x2="273.78458"
       y2="109.91143" />
    <linearGradient
       inkscape:collect="always"
       xlink:href="#linearGradient13263"
       id="linearGradient3913"
       gradientUnits="userSpaceOnUse"
       gradientTransform="matrix(1.0353074,0,0,1.1486622,-226.39584,-83.999193)"
       x1="302.36649"
       y1="85.341019"
       x2="273.78458"
       y2="109.91143" />
    <linearGradient
       inkscape:collect="always"
       xlink:href="#linearGradient13263"
       id="linearGradient3930"
       gradientUnits="userSpaceOnUse"
       gradientTransform="matrix(1.0353074,0,0,1.1486622,-226.39584,-83.999193)"
       x1="302.36649"
       y1="85.341019"
       x2="273.78458"
       y2="109.91143" />
    <linearGradient
       inkscape:collect="always"
       xlink:href="#linearGradient13263"
       id="linearGradient3937"
       gradientUnits="userSpaceOnUse"
       gradientTransform="matrix(1.2223334,0,0,1.3561655,-277.20531,-108.66092)"
       x1="302.36649"
       y1="85.341019"
       x2="273.78458"
       y2="109.91143" />
    <linearGradient
       inkscape:collect="always"
       xlink:href="#linearGradient13263"
       id="linearGradient3944"
       gradientUnits="userSpaceOnUse"
       gradientTransform="matrix(1.2223334,0,0,1.3561655,-277.20531,-108.66092)"
       x1="302.36649"
       y1="85.341019"
       x2="273.78458"
       y2="109.91143" />
    <linearGradient
       inkscape:collect="always"
       xlink:href="#linearGradient13263"
       id="linearGradient3949"
       gradientUnits="userSpaceOnUse"
       gradientTransform="matrix(1.234087,0,0,1.369206,-280.09067,-109.84092)"
       x1="302.36649"
       y1="85.341019"
       x2="273.78458"
       y2="109.91143" />
    <linearGradient
       inkscape:collect="always"
       xlink:href="#linearGradient13263"
       id="linearGradient3967"
       gradientUnits="userSpaceOnUse"
       gradientTransform="matrix(1.234087,0,0,1.369206,-280.09067,-109.84092)"
       x1="302.36649"
       y1="85.341019"
       x2="273.78458"
       y2="109.91143" />
    <linearGradient
       inkscape:collect="always"
       xlink:href="#linearGradient13263"
       id="linearGradient3975"
       gradientUnits="userSpaceOnUse"
       gradientTransform="matrix(1.234087,0,0,1.369206,-280.09067,-109.84092)"
       x1="302.36649"
       y1="85.341019"
       x2="273.78458"
       y2="109.91143" />
    <linearGradient
       inkscape:collect="always"
       xlink:href="#linearGradient13263"
       id="linearGradient3981"
       gradientUnits="userSpaceOnUse"
       gradientTransform="matrix(1.234087,0,0,1.369206,-280.09067,-109.84092)"
       x1="302.36649"
       y1="85.341019"
       x2="273.78458"
       y2="109.91143" />
    <linearGradient
       inkscape:collect="always"
       xlink:href="#linearGradient13263"
       id="linearGradient3984"
       gradientUnits="userSpaceOnUse"
       gradientTransform="matrix(1.1823136,0,0,1.311764,-268.33186,-100.78716)"
       x1="302.36649"
       y1="85.341019"
       x2="273.78458"
       y2="109.91143" />
  </defs>
  <rect
     width="100"
     height="100"
     x="-0.0098983888"
     y="0.0098999729"
     id="border"
     style="opacity:0.64285715;fill:none;stroke:none"
     inkscape:export-filename="C:\Users\tempadmin\Desktop\Forme SVG\png\square_after_1.png"
     inkscape:export-xdpi="90"
     inkscape:export-ydpi="90" />
  <rect
     style="fill:none;fill-rule:evenodd;stroke:#000000;stroke-width:0px;stroke-linecap:butt;stroke-linejoin:miter;stroke-opacity:1"
     id="externalBorder"
     width="99"
     height="99"
     x="0.2"
     y="0.2" />
  <path
     style="color:#000000;clip-rule:nonzero;display:inline;overflow:visible;visibility:visible;opacity:0.91799999;isolation:auto;mix-blend-mode:normal;color-interpolation:sRGB;color-interpolation-filters:linearRGB;solid-color:#000000;solid-opacity:1;fill:#000000;fill-opacity:1;fill-rule:nonzero;stroke:none;stroke-width:10.24300003;stroke-linecap:butt;stroke-linejoin:miter;stroke-miterlimit:4;stroke-dasharray:10.24300003, 20.48600005999999851;stroke-dashoffset:0;stroke-opacity:1;color-rendering:auto;image-rendering:auto;shape-rendering:auto;text-rendering:auto;enable-background:accumulate"
     d="m 22.449436,95.304329 c -1.011417,-0.459455 -1.655509,-1.486532 -1.654085,-2.637628 7.7e-4,-0.622426 0.896602,-2.973348 12.675003,-33.26288 L 46.144527,26.810702 47.749285,25.72715 c 1.261309,-0.851652 1.689984,-1.085008 2.002976,-1.090357 0.326984,-0.0056 0.680364,0.187887 1.975458,1.081559 1.179507,0.813912 1.607698,1.17281 1.698033,1.423245 0.06644,0.184185 5.754696,14.826869 12.640574,32.539298 9.011051,23.178977 12.53284,32.361082 12.566385,32.763428 0.0956,1.14662 -0.473279,2.201578 -1.487921,2.759287 -1.053754,0.579207 -2.724049,0.333254 -3.506713,-0.516368 -0.150659,-0.163549 -0.686612,-1.338095 -1.191007,-2.610104 l -0.917081,-2.312741 -21.811758,-0.02819 -21.811758,-0.02819 -0.765376,1.98166 c -0.420957,1.089914 -0.853439,2.1609 -0.96107,2.379969 -0.265827,0.54106 -0.9972,1.179915 -1.515578,1.32386 -0.662049,0.18384 -1.706571,0.141784 -2.215013,-0.08919 z M 48.609862,87.938836 C 48.546377,87.77617 34.348899,73.745909 34.247778,73.745909 c -0.08223,0 -5.408046,13.452517 -5.568052,14.064383 -0.05828,0.222867 -0.01299,0.223885 9.954399,0.223885 5.50712,0 9.996203,-0.0429 9.975737,-0.09534 z m 22.200806,-0.04419 c -0.03051,-0.07674 -1.246826,-3.203698 -2.702919,-6.948787 -1.456093,-3.745089 -2.681085,-6.870857 -2.722201,-6.946152 -0.04734,-0.08669 -2.673446,2.462029 -7.159784,6.948787 l -7.085028,7.085686 9.862704,0 c 7.845333,0 9.851356,-0.02854 9.807228,-0.139534 z m -16.516593,-14.120301 -4.380837,-4.38189 -4.326079,4.325013 c -2.379344,2.378758 -4.32608,4.375249 -4.32608,4.436647 0,0.0614 1.946258,2.058373 4.325019,4.43772 l 4.32502,4.326087 4.381897,-4.380843 4.381897,-4.380843 -4.380837,-4.381891 z m -9.842826,-1.231729 4.337005,-4.27304 -4.460733,-4.46178 c -2.453404,-2.453979 -4.486086,-4.461511 -4.517071,-4.461186 -0.05538,5.59e-4 -4.817772,12.034324 -4.896738,12.373221 -0.03869,0.166061 4.976968,5.167816 5.132094,5.117863 0.03764,-0.01212 2.020091,-1.944905 4.405443,-4.295078 z m 18.380606,1.463429 1.868594,-1.816941 -2.44737,-6.223774 c -1.346053,-3.423076 -2.488497,-6.237483 -2.538765,-6.254239 -0.05027,-0.01675 -2.016586,1.895215 -4.369599,4.248823 l -4.278204,4.279287 4.387391,4.307971 4.38739,4.307971 0.560984,-0.516078 c 0.308542,-0.283843 1.401851,-1.333702 2.429579,-2.33302 z m -7.493551,-12.343455 5.290075,-5.218256 -10.660387,0.0057 -10.660388,0.0057 5.302287,5.23986 c 2.916258,2.881923 5.332899,5.227555 5.370313,5.212516 0.03741,-0.01504 2.448559,-2.375559 5.3581,-5.245599 l 0,4e-6 z m 2.443584,-7.014837 c 0,-0.168698 -7.925639,-20.674736 -8.03579,-20.791031 -0.04904,-0.05177 -0.190219,0.174273 -0.313739,0.502322 -0.123518,0.328049 -1.93724,5.030593 -4.03049,10.450098 -2.09325,5.419505 -3.805909,9.877612 -3.805909,9.906904 0,0.02929 3.641834,0.05326 8.092964,0.05326 5.761465,0 8.092964,-0.03502 8.092964,-0.121553 z"
     id="path4158"
     inkscape:connector-curvature="0" />
  <path
     style="color:#000000;clip-rule:nonzero;display:inline;overflow:visible;visibility:visible;opacity:0.91799999;isolation:auto;mix-blend-mode:normal;color-interpolation:sRGB;color-interpolation-filters:linearRGB;solid-color:#000000;solid-opacity:1;fill:#000000;fill-opacity:1;fill-rule:nonzero;stroke:none;stroke-width:10.24300003;stroke-linecap:butt;stroke-linejoin:miter;stroke-miterlimit:4;stroke-dasharray:10.24300003, 20.48600006;stroke-dashoffset:0;stroke-opacity:1;color-rendering:auto;image-rendering:auto;shape-rendering:auto;text-rendering:auto;enable-background:accumulate"
     d="m 29.903042,28.318932 c -4.038383,-5.73472 -3.772509,-12.828608 0.670462,-17.888872 0.470439,-0.535801 0.494658,-0.544032 0.797217,-0.270938 0.171621,0.154907 0.512529,0.534448 0.757573,0.843425 l 0.445534,0.561775 -0.705433,1.013665 c -3.064024,4.402822 -3.202903,9.809122 -0.366456,14.26545 l 0.794752,1.248629 -0.672956,0.685691 c -0.370126,0.377131 -0.727354,0.685693 -0.793841,0.685693 -0.06649,0 -0.483569,-0.515033 -0.926852,-1.144518 z"
     id="path4160"
     inkscape:connector-curvature="0" />
  <path
     style="color:#000000;clip-rule:nonzero;display:inline;overflow:visible;visibility:visible;opacity:0.91799999;isolation:auto;mix-blend-mode:normal;color-interpolation:sRGB;color-interpolation-filters:linearRGB;solid-color:#000000;solid-opacity:1;fill:#000000;fill-opacity:1;fill-rule:nonzero;stroke:none;stroke-width:10.24300003;stroke-linecap:butt;stroke-linejoin:miter;stroke-miterlimit:4;stroke-dasharray:10.24300003, 20.48600006;stroke-dashoffset:0;stroke-opacity:1;color-rendering:auto;image-rendering:auto;shape-rendering:auto;text-rendering:auto;enable-background:accumulate"
     d="m 49.036244,21.963976 c -2.398977,-0.41668 -3.899684,-2.919715 -3.1035,-5.176341 1.258381,-3.566632 6.362656,-3.583999 7.575066,-0.02577 0.306868,0.90061 0.305627,1.669237 -0.0042,2.578424 -0.635779,1.865908 -2.506111,2.964349 -4.467403,2.623691 z"
     id="path4162"
     inkscape:connector-curvature="0" />
  <path
     style="color:#000000;clip-rule:nonzero;display:inline;overflow:visible;visibility:visible;opacity:0.91799999;isolation:auto;mix-blend-mode:normal;color-interpolation:sRGB;color-interpolation-filters:linearRGB;solid-color:#000000;solid-opacity:1;fill:#000000;fill-opacity:1;fill-rule:nonzero;stroke:none;stroke-width:10.24300003;stroke-linecap:butt;stroke-linejoin:miter;stroke-miterlimit:4;stroke-dasharray:10.24300003, 20.48600006;stroke-dashoffset:0;stroke-opacity:1;color-rendering:auto;image-rendering:auto;shape-rendering:auto;text-rendering:auto;enable-background:accumulate"
     d="m 68.079048,29.029322 -0.734159,-0.749856 0.379014,-0.43609 c 0.723254,-0.832169 1.64021,-2.571192 2.142375,-4.06305 0.429628,-1.276364 0.516056,-1.794465 0.580331,-3.478862 0.06369,-1.668931 0.02273,-2.1879 -0.261261,-3.310947 -0.380065,-1.502953 -1.256274,-3.474244 -2.02457,-4.554869 l -0.515625,-0.725238 0.732559,-0.743743 0.732559,-0.743742 0.270473,0.34572 c 0.14876,0.190146 0.607197,0.867139 1.018749,1.50443 3.119216,4.830121 3.423822,9.935274 0.87477,14.661051 -0.737096,1.366526 -1.986745,3.045053 -2.267018,3.045053 -0.106721,0 -0.52441,-0.337436 -0.928197,-0.749857 z"
     id="path4164"
     inkscape:connector-curvature="0" />
  <path
     style="color:#000000;clip-rule:nonzero;display:inline;overflow:visible;visibility:visible;opacity:0.91799999;isolation:auto;mix-blend-mode:normal;color-interpolation:sRGB;color-interpolation-filters:linearRGB;solid-color:#000000;solid-opacity:1;fill:#000000;fill-opacity:1;fill-rule:nonzero;stroke:none;stroke-width:10.24300003;stroke-linecap:butt;stroke-linejoin:miter;stroke-miterlimit:4;stroke-dasharray:10.24300003, 20.48600006;stroke-dashoffset:0;stroke-opacity:1;color-rendering:auto;image-rendering:auto;shape-rendering:auto;text-rendering:auto;enable-background:accumulate"
     d="M 80.300508,35.571869 79.473291,34.734246 80.29183,33.71696 c 2.204716,-2.740036 3.721039,-6.109832 4.329165,-9.620905 0.370264,-2.137761 0.246477,-7.421284 -0.216369,-9.235076 -0.865909,-3.393311 -2.245808,-6.253571 -4.147,-8.5959228 l -0.826614,-1.0184242 0.853749,-0.7622188 0.85375,-0.7622187 0.681621,0.7545234 c 2.427472,2.6870974 4.505863,7.0044341 5.417026,11.2525161 0.507262,2.364986 0.51443,6.938485 0.01441,9.196953 -0.716651,3.236969 -1.858503,5.991996 -3.501489,8.448288 -0.91993,1.375309 -2.294278,3.035015 -2.513197,3.035015 -0.06004,0 -0.481409,-0.37693 -0.936379,-0.837621 z"
     id="path4166"
     inkscape:connector-curvature="0" />
  <path
     style="color:#000000;clip-rule:nonzero;display:inline;overflow:visible;visibility:visible;opacity:0.91799999;isolation:auto;mix-blend-mode:normal;color-interpolation:sRGB;color-interpolation-filters:linearRGB;solid-color:#000000;solid-opacity:1;fill:#000000;fill-opacity:1;fill-rule:nonzero;stroke:none;stroke-width:10.24300003;stroke-linecap:butt;stroke-linejoin:miter;stroke-miterlimit:4;stroke-dasharray:10.24300003, 20.48600006;stroke-dashoffset:0;stroke-opacity:1;color-rendering:auto;image-rendering:auto;shape-rendering:auto;text-rendering:auto;enable-background:accumulate"
     d="M 18.055473,35.327388 C 15.839172,32.608778 14.323711,29.70222 13.310704,26.227226 11.579011,20.286869 12.146238,14.137851 14.927818,8.696901 15.75316,7.0824805 17.051248,5.1419598 18.019396,4.0752801 l 0.762617,-0.8402322 0.84392,0.9652456 0.843919,0.9652457 -0.412681,0.5064446 c -2.463308,3.0229862 -3.955847,6.1839532 -4.69195,9.9368232 -0.443762,2.26243 -0.481977,5.797339 -0.08616,7.970014 0.664133,3.645502 2.266859,7.22149 4.422964,9.868478 0.405662,0.49802 0.737567,0.9622 0.737567,1.031512 0,0.06931 -0.372955,0.489118 -0.828789,0.932902 l -0.828789,0.806882 -0.72654,-0.891207 z"
     id="path4168"
     inkscape:connector-curvature="0" />
</svg>
