<?xml version="1.0" encoding="UTF-8" standalone="no"?>
<!-- Created with Inkscape (http://www.inkscape.org/) -->

<svg
   xmlns:dc="http://purl.org/dc/elements/1.1/"
   xmlns:cc="http://creativecommons.org/ns#"
   xmlns:rdf="http://www.w3.org/1999/02/22-rdf-syntax-ns#"
   xmlns:svg="http://www.w3.org/2000/svg"
   xmlns="http://www.w3.org/2000/svg"
   xmlns:xlink="http://www.w3.org/1999/xlink"
   xmlns:sodipodi="http://sodipodi.sourceforge.net/DTD/sodipodi-0.dtd"
   xmlns:inkscape="http://www.inkscape.org/namespaces/inkscape"
   version="1.1"
   width="100"
   height="100"
   id="svg5020"
   viewBox="0 0 100 100"
   preserveAspectRatio="none"
   inkscape:version="0.91 r13725"
   sodipodi:docname="chipset.svg">
  <metadata
     id="metadata19">
    <rdf:RDF>
      <cc:Work
         rdf:about="">
        <dc:format>image/svg+xml</dc:format>
        <dc:type
           rdf:resource="http://purl.org/dc/dcmitype/StillImage" />
        <dc:title></dc:title>
      </cc:Work>
    </rdf:RDF>
  </metadata>
  <sodipodi:namedview
     pagecolor="#ffffff"
     bordercolor="#666666"
     borderopacity="1"
     objecttolerance="10"
     gridtolerance="10"
     guidetolerance="10"
     inkscape:pageopacity="0"
     inkscape:pageshadow="2"
     inkscape:window-width="1920"
     inkscape:window-height="1051"
     id="namedview17"
     showgrid="false"
     inkscape:zoom="4.4791993"
     inkscape:cx="-22.543985"
     inkscape:cy="46.729758"
     inkscape:window-x="1920"
     inkscape:window-y="0"
     inkscape:window-maximized="1"
     inkscape:current-layer="svg5020"
     showguides="true"
     inkscape:guide-bbox="true">
    <sodipodi:guide
       orientation="0,1"
       position="106.26899,0.44650838"
       id="guide3932" />
    <sodipodi:guide
       orientation="1,0"
       position="99.571368,-8.4836591"
       id="guide3934" />
    <sodipodi:guide
       orientation="1,0"
       position="0.22325419,68.539036"
       id="guide3946" />
  </sodipodi:namedview>
  <defs
     id="defs5022">
    <linearGradient
       id="linearGradient4207">
      <stop
         offset="0"
         style="stop-color:#ffffff;stop-opacity:1"
         id="stop4209" />
      <stop
         offset="1"
         style="stop-color:#f7b78b;stop-opacity:1"
         id="stop4211" />
    </linearGradient>
    <filter
       x="-0.26370296"
       y="-0.29216129"
       width="1.5274059"
       height="1.5843226"
       color-interpolation-filters="sRGB"
       id="filter20257">
      <feGaussianBlur
         stdDeviation="8.4844688"
         id="feGaussianBlur20259" />
    </filter>
    <linearGradient
       x1="302.36649"
       y1="85.341019"
       x2="273.78458"
       y2="109.91143"
       id="linearGradient20265"
       xlink:href="#linearGradient13263"
       gradientUnits="userSpaceOnUse"
       gradientTransform="translate(7.0201173,-1.0028739)" />
    <linearGradient
       id="linearGradient13263">
      <stop
         id="stop1"
         style="stop-color:#a9c3e4;stop-opacity:1"
         offset="0" />
      <stop
         id="stop2"
         style="stop-color:#3465a4;stop-opacity:1"
         offset="1" />
    </linearGradient>
    <linearGradient
       inkscape:collect="always"
       xlink:href="#linearGradient13263"
       id="linearGradient3895"
       gradientUnits="userSpaceOnUse"
       gradientTransform="translate(7.0201173,-1.0028739)"
       x1="302.36649"
       y1="85.341019"
       x2="273.78458"
       y2="109.91143" />
    <linearGradient
       inkscape:collect="always"
       xlink:href="#linearGradient13263"
       id="linearGradient3903"
       gradientUnits="userSpaceOnUse"
       gradientTransform="translate(7.0201173,-1.0028739)"
       x1="302.36649"
       y1="85.341019"
       x2="273.78458"
       y2="109.91143" />
    <linearGradient
       inkscape:collect="always"
       xlink:href="#linearGradient13263"
       id="linearGradient3910"
       gradientUnits="userSpaceOnUse"
       gradientTransform="translate(7.0201173,-1.0028739)"
       x1="302.36649"
       y1="85.341019"
       x2="273.78458"
       y2="109.91143" />
    <linearGradient
       inkscape:collect="always"
       xlink:href="#linearGradient13263"
       id="linearGradient3913"
       gradientUnits="userSpaceOnUse"
       gradientTransform="matrix(1.0353074,0,0,1.1486622,-226.39584,-83.999193)"
       x1="302.36649"
       y1="85.341019"
       x2="273.78458"
       y2="109.91143" />
    <linearGradient
       inkscape:collect="always"
       xlink:href="#linearGradient13263"
       id="linearGradient3930"
       gradientUnits="userSpaceOnUse"
       gradientTransform="matrix(1.0353074,0,0,1.1486622,-226.39584,-83.999193)"
       x1="302.36649"
       y1="85.341019"
       x2="273.78458"
       y2="109.91143" />
    <linearGradient
       inkscape:collect="always"
       xlink:href="#linearGradient13263"
       id="linearGradient3937"
       gradientUnits="userSpaceOnUse"
       gradientTransform="matrix(1.2223334,0,0,1.3561655,-277.20531,-108.66092)"
       x1="302.36649"
       y1="85.341019"
       x2="273.78458"
       y2="109.91143" />
    <linearGradient
       inkscape:collect="always"
       xlink:href="#linearGradient13263"
       id="linearGradient3944"
       gradientUnits="userSpaceOnUse"
       gradientTransform="matrix(1.2223334,0,0,1.3561655,-277.20531,-108.66092)"
       x1="302.36649"
       y1="85.341019"
       x2="273.78458"
       y2="109.91143" />
    <linearGradient
       inkscape:collect="always"
       xlink:href="#linearGradient13263"
       id="linearGradient3949"
       gradientUnits="userSpaceOnUse"
       gradientTransform="matrix(1.234087,0,0,1.369206,-280.09067,-109.84092)"
       x1="302.36649"
       y1="85.341019"
       x2="273.78458"
       y2="109.91143" />
    <linearGradient
       inkscape:collect="always"
       xlink:href="#linearGradient13263"
       id="linearGradient3967"
       gradientUnits="userSpaceOnUse"
       gradientTransform="matrix(1.234087,0,0,1.369206,-280.09067,-109.84092)"
       x1="302.36649"
       y1="85.341019"
       x2="273.78458"
       y2="109.91143" />
    <linearGradient
       inkscape:collect="always"
       xlink:href="#linearGradient13263"
       id="linearGradient3975"
       gradientUnits="userSpaceOnUse"
       gradientTransform="matrix(1.234087,0,0,1.369206,-280.09067,-109.84092)"
       x1="302.36649"
       y1="85.341019"
       x2="273.78458"
       y2="109.91143" />
    <linearGradient
       inkscape:collect="always"
       xlink:href="#linearGradient13263"
       id="linearGradient3981"
       gradientUnits="userSpaceOnUse"
       gradientTransform="matrix(1.234087,0,0,1.369206,-280.09067,-109.84092)"
       x1="302.36649"
       y1="85.341019"
       x2="273.78458"
       y2="109.91143" />
    <linearGradient
       inkscape:collect="always"
       xlink:href="#linearGradient13263"
       id="linearGradient3984"
       gradientUnits="userSpaceOnUse"
       gradientTransform="matrix(1.1823136,0,0,1.311764,-268.33186,-100.78716)"
       x1="302.36649"
       y1="85.341019"
       x2="273.78458"
       y2="109.91143" />
    <linearGradient
       inkscape:collect="always"
       xlink:href="#linearGradient4207"
       id="linearGradient4205"
       x1="12.290255"
       y1="11.075007"
       x2="42.148495"
       y2="34.963207"
       gradientUnits="userSpaceOnUse" />
  </defs>
  <rect
     width="100"
     height="100"
     x="-0.0098983888"
     y="0.0098999729"
     id="border"
     style="opacity:0.64285715;fill:none;stroke:none"
     inkscape:export-filename="C:\Users\tempadmin\Desktop\Forme SVG\png\square_after_1.png"
     inkscape:export-xdpi="90"
     inkscape:export-ydpi="90" />
  <rect
     style="fill:none;fill-rule:evenodd;stroke:#000000;stroke-width:0px;stroke-linecap:butt;stroke-linejoin:miter;stroke-opacity:1"
     id="externalBorder"
     width="99"
     height="99"
     x="0.2"
     y="0.2" />
  <g
     id="g4"
     transform="matrix(1.4539502,0,0,1.4539502,7.9532118,6.8190653)">
    <circle
       cx="4"
       cy="51"
       r="1"
       id="circle6" />
    <circle
       cx="4"
       cy="56"
       r="1"
       id="circle8" />
    <circle
       cx="56"
       cy="4"
       r="1"
       id="circle10" />
    <circle
       cx="56"
       cy="56"
       r="1"
       id="circle12" />
    <circle
       cx="6"
       cy="49"
       r="1"
       id="circle14" />
    <circle
       cx="54"
       cy="35"
       r="1"
       id="circle16" />
    <circle
       cx="56"
       cy="37"
       r="1"
       id="circle18" />
    <circle
       cx="54"
       cy="45"
       r="1"
       id="circle20" />
    <circle
       cx="56"
       cy="47"
       r="1"
       id="circle22" />
    <circle
       cx="54"
       cy="25"
       r="1"
       id="circle24" />
    <circle
       cx="56"
       cy="27"
       r="1"
       id="circle26" />
    <circle
       cx="4"
       cy="46"
       r="1"
       id="circle28" />
    <circle
       cx="6"
       cy="44"
       r="1"
       id="circle30" />
    <circle
       cx="4"
       cy="41"
       r="1"
       id="circle32" />
    <circle
       cx="6"
       cy="39"
       r="1"
       id="circle34" />
    <circle
       cx="4"
       cy="36"
       r="1"
       id="circle36" />
    <circle
       cx="6"
       cy="34"
       r="1"
       id="circle38" />
    <circle
       cx="4"
       cy="31"
       r="1"
       id="circle40" />
    <circle
       cx="6"
       cy="29"
       r="1"
       id="circle42" />
    <circle
       cx="4"
       cy="26"
       r="1"
       id="circle44" />
    <circle
       cx="6"
       cy="24"
       r="1"
       id="circle46" />
    <circle
       cx="4"
       cy="11"
       r="1"
       id="circle48" />
    <circle
       cx="17"
       cy="4"
       r="1"
       id="circle50" />
    <circle
       cx="13"
       cy="4"
       r="1"
       id="circle52" />
    <circle
       cx="4"
       cy="14"
       r="1"
       id="circle54" />
    <path
       inkscape:connector-curvature="0"
       d="m 49,0 0,1 C 49,3.21 47.21,5 45,5 42.79,5 41,3.21 41,1 L 41,0 11.41,0 0,0 0,11.41 0,60 l 41,0 0,-1 c 0,-2.21 1.79,-4 4,-4 2.21,0 4,1.79 4,4 l 0,1 11,0 L 60,0 49,0 Z M 2,2 6.59,2 2,6.59 2,2 Z m 56,56 -7.08,0 C 50.44,55.17 47.97,53 45,53 c -2.97,0 -5.44,2.17 -5.92,5 L 2,58 2,9.41 9.41,2 39.08,2 c 0.48,2.83 2.95,5 5.92,5 2.97,0 5.44,-2.17 5.92,-5 L 58,2 58,58 Z"
       id="path56" />
    <path
       inkscape:connector-curvature="0"
       d="M 44.03,10 15.97,10 C 12.68,10 10,12.68 10,15.97 l 0,5.53 c 0,1.38 1.12,2.5 2.5,2.5 0.28,0 0.5,0.22 0.5,0.5 l 0,11 C 13,35.78 12.78,36 12.5,36 11.12,36 10,37.12 10,38.5 l 0,5.53 c 0,3.29 2.68,5.97 5.97,5.97 l 28.07,0 c 3.29,0 5.97,-2.68 5.97,-5.97 l 0,-28.06 C 50,12.68 47.32,10 44.03,10 Z M 15,35.5 l 0,-11 0,-7.19 C 15,16.03 16.04,15 17.31,15 l 25.38,0 c 1.27,0 2.31,1.04 2.31,2.31 l 0,25.38 C 45,43.97 43.96,45 42.69,45 L 17.31,45 C 16.04,45 15,43.96 15,42.69 l 0,-7.19 z m 33,8.53 C 48,46.22 46.22,48 44.03,48 L 15.97,48 C 13.78,48 12,46.22 12,44.03 l 0,-5.53 c 0,-0.28 0.22,-0.5 0.5,-0.5 0.17,0 0.34,-0.02 0.5,-0.05 l 0,4.74 c 0,2.38 1.93,4.31 4.31,4.31 l 25.38,0 C 45.07,47 47,45.07 47,42.69 L 47,17.31 C 47,14.93 45.07,13 42.69,13 L 17.31,13 C 14.93,13 13,14.93 13,17.31 l 0,4.74 C 12.84,22.02 12.67,22 12.5,22 12.22,22 12,21.78 12,21.5 l 0,-5.53 C 12,13.78 13.78,12 15.97,12 l 28.07,0 c 2.19,0 3.97,1.78 3.97,3.97 l 0,28.06 z"
       id="path58" />
    <circle
       cx="37"
       cy="56"
       r="1"
       id="circle60" />
    <circle
       cx="35"
       cy="54"
       r="1"
       id="circle62" />
    <circle
       cx="32"
       cy="56"
       r="1"
       id="circle64" />
    <circle
       cx="30"
       cy="54"
       r="1"
       id="circle66" />
    <circle
       cx="27"
       cy="56"
       r="1"
       id="circle68" />
    <circle
       cx="25"
       cy="54"
       r="1"
       id="circle70" />
    <circle
       cx="22"
       cy="56"
       r="1"
       id="circle72" />
    <circle
       cx="20"
       cy="54"
       r="1"
       id="circle74" />
    <circle
       cx="17"
       cy="56"
       r="1"
       id="circle76" />
    <circle
       cx="15"
       cy="54"
       r="1"
       id="circle78" />
    <circle
       cx="12"
       cy="56"
       r="1"
       id="circle80" />
    <circle
       cx="10"
       cy="54"
       r="1"
       id="circle82" />
    <path
       inkscape:connector-curvature="0"
       d="m 27.06,39 c 2.15,0 4.43,-0.51 6.61,-1.46 2.86,-1.26 5.25,-3.16 6.73,-5.37 1.57,-2.34 1.94,-4.75 1.04,-6.79 -1.09,-2.48 -3.93,-3.96 -7.59,-3.96 -2.15,0 -4.43,0.51 -6.61,1.46 -2.86,1.26 -5.25,3.16 -6.73,5.37 -1.57,2.34 -1.94,4.75 -1.04,6.79 1.09,2.48 3.93,3.96 7.59,3.96 z m -4.88,-9.63 c 1.27,-1.89 3.35,-3.54 5.87,-4.65 1.93,-0.85 3.94,-1.3 5.81,-1.3 2.85,0 5,1.03 5.76,2.77 0.61,1.39 0.3,3.12 -0.87,4.87 -1.27,1.89 -3.35,3.54 -5.87,4.65 -1.93,0.85 -3.94,1.3 -5.81,1.3 -2.84,0 -5,-1.03 -5.76,-2.77 -0.62,-1.39 -0.3,-3.12 0.87,-4.87 z"
       id="path84" />
    <path
       inkscape:connector-curvature="0"
       d="m 27,31 7,0 c 0.55,0 1,-0.45 1,-1 0,-0.55 -0.45,-1 -1,-1 l -7,0 c -0.55,0 -1,0.45 -1,1 0,0.55 0.45,1 1,1 z"
       id="path86" />
  </g>
  <path
     style="color:#000000;clip-rule:nonzero;display:inline;overflow:visible;visibility:visible;opacity:1;isolation:auto;mix-blend-mode:normal;color-interpolation:sRGB;color-interpolation-filters:linearRGB;solid-color:#000000;solid-opacity:1;fill:url(#linearGradient4205);fill-opacity:1;fill-rule:nonzero;stroke:#000000;stroke-width:0.16543135;stroke-linecap:butt;stroke-linejoin:miter;stroke-miterlimit:4;stroke-dasharray:none;stroke-dashoffset:0;stroke-opacity:1;color-rendering:auto;image-rendering:auto;shape-rendering:auto;text-rendering:auto;enable-background:accumulate"
     d="m 11.033445,55.781043 0,-35.220957 5.41672,-5.413335 5.416719,-5.4133354 21.404964,0.056943 21.404964,0.056943 0.266177,0.8930164 c 0.861522,2.890369 2.983274,5.026622 5.881643,5.921837 4.161705,1.28542 8.43972,-0.568693 10.412999,-4.513047 0.434855,-0.869224 0.790646,-1.767839 0.790646,-1.996921 0,-0.3941728 0.269421,-0.4165124 5.023219,-0.4165124 l 5.023219,0 0,40.6322624 0,40.632262 -4.98788,0 -4.98788,0 -0.277923,-0.948831 c -0.665201,-2.271015 -2.431416,-4.293137 -4.704347,-5.385962 -1.341541,-0.645013 -1.628215,-0.697714 -3.795321,-0.697714 -2.099342,0 -2.472413,0.06329 -3.572067,0.605954 -2.32828,1.148978 -3.883489,2.858705 -4.694063,5.160445 l -0.406557,1.154481 -26.807617,0.05671 -26.807615,0.05671 0,-35.220956 z m 3.851135,33.483742 c 0.493552,-0.433397 0.504978,-1.563586 0.02121,-2.098141 -0.214607,-0.237138 -0.675827,-0.408274 -1.100323,-0.408274 -1.185386,0 -1.86364,0.986924 -1.44143,2.09742 0.385043,1.012741 1.607164,1.211049 2.520542,0.408995 z m 11.609218,0 c 0.523412,-0.459618 0.503851,-1.665044 -0.03493,-2.152635 -0.621007,-0.562002 -1.768063,-0.385221 -2.32014,0.357577 -0.386245,0.51968 -0.40942,0.687422 -0.173623,1.256687 0.463414,1.118778 1.593685,1.359419 2.528694,0.538371 z m 7.367388,-0.09475 c 0.840681,-0.972254 0.141119,-2.411663 -1.172085,-2.411663 -0.774586,0 -1.562779,0.682997 -1.562779,1.354202 0,1.556207 1.726414,2.223741 2.734864,1.057461 z m 6.712302,0.45722 c 0.650967,-0.342643 0.815034,-0.623093 0.819109,-1.400152 0.0045,-0.86248 -0.577052,-1.468731 -1.408944,-1.468731 -0.89341,0 -1.490755,0.574607 -1.486525,1.429941 0.004,0.796763 0.156086,1.076192 0.777972,1.42884 0.568184,0.322198 0.703454,0.32325 1.298388,0.01011 l 0,-1.2e-5 z m 7.79922,-0.45722 c 0.840682,-0.972254 0.141119,-2.411663 -1.172084,-2.411663 -0.774587,0 -1.56278,0.682997 -1.56278,1.354202 0,1.556207 1.726414,2.223741 2.734864,1.057461 z m 6.748287,0.452367 c 1.403643,-0.639543 0.91757,-2.86403 -0.62582,-2.86403 -1.776092,0 -2.071162,2.343017 -0.373672,2.967173 0.184185,0.06772 0.355271,0.131066 0.380191,0.14076 0.02492,0.0097 0.303606,-0.100063 0.619301,-0.243903 z m 7.763235,-0.357615 c 0.484053,-0.425054 0.503959,-1.35234 0.04315,-2.01023 -0.417585,-0.596187 -1.670285,-0.679008 -2.203601,-0.145691 -1.528633,1.528632 0.532501,3.585451 2.160446,2.155921 z m 27.68352,-0.09475 c 0.840681,-0.972254 0.141118,-2.411663 -1.172085,-2.411663 -0.774587,0 -1.562779,0.682997 -1.562779,1.354202 0,1.556207 1.726413,2.223741 2.734864,1.057461 z M 23.591493,86.354952 c 0.524026,-0.45006 0.504372,-1.657044 -0.03493,-2.145107 -0.610633,-0.552614 -1.767892,-0.385479 -2.301316,0.332366 -0.590297,0.79438 -0.339568,1.722162 0.568603,2.104021 0.733655,0.308477 1.14901,0.240034 1.767643,-0.29128 z m 7.367388,-0.08722 c 0.91585,-1.059187 0.103219,-2.489999 -1.345229,-2.368569 -1.53439,0.128635 -1.881364,2.09525 -0.49291,2.793765 0.666329,0.335223 1.309213,0.186511 1.838139,-0.425196 z m 7.144134,0.08722 c 0.493591,-0.423919 0.505077,-1.555948 0.02121,-2.090612 -0.46038,-0.508714 -1.582645,-0.529207 -2.124548,-0.03879 -0.414641,0.375246 -0.546097,1.52386 -0.231112,2.019379 0.232758,0.366164 1.199701,0.703809 1.608872,0.561799 0.184185,-0.06392 0.510694,-0.267222 0.725576,-0.451775 l 2e-6,0 z m 7.367389,-0.08722 c 0.840681,-0.972254 0.141119,-2.411663 -1.172085,-2.411663 -0.774587,0 -1.562779,0.682997 -1.562779,1.354202 0,1.556206 1.726413,2.223741 2.734864,1.057461 z m 7.470842,-0.368872 c 0.308729,-1.166577 -0.269629,-2.042791 -1.348375,-2.042791 -1.769174,0 -2.074286,2.409276 -0.373672,2.950645 0.626503,0.19944 1.559125,-0.292235 1.722047,-0.907854 z m 7.04068,0.463623 c 0.880932,-0.773562 0.206043,-2.506414 -0.976168,-2.506414 -0.961734,0 -1.477842,0.345787 -1.643785,1.101319 -0.353246,1.608323 1.348927,2.521208 2.619953,1.405095 z m -45.15316,-4.292448 c 0.921927,-0.921926 0.22874,-2.67905 -1.056888,-2.67905 -0.651781,0 -1.622162,0.934857 -1.622162,1.562779 0,0.645098 0.977271,1.56278 1.664259,1.56278 0.312555,0 0.769212,-0.200929 1.014791,-0.446509 z m 2.902305,-2.902304 c 0.926082,-0.926083 0.262079,-2.679051 -1.014792,-2.679051 -0.686987,0 -1.664258,0.917682 -1.664258,1.56278 0,0.645097 0.977271,1.562779 1.664258,1.562779 0.312556,0 0.769212,-0.200929 1.014792,-0.446508 z m 57.876583,-0.377999 c 1.855347,-0.878889 3.444071,-2.426514 4.315209,-4.203581 l 0.654262,-1.334656 0,-22.771927 0,-22.771927 -0.598335,-1.276582 C 79.143351,24.648592 77.575546,23.051655 75.805435,22.18015 L 74.335674,21.45652 52.021266,21.39648 c -24.817442,-0.06677 -23.529997,-0.139149 -25.805762,1.450769 -1.593298,1.113127 -2.805137,2.736927 -3.353271,4.493206 -0.387654,1.242086 -0.442824,2.058824 -0.442824,6.555602 0,4.78222 0.03186,5.192774 0.461619,5.948534 0.592629,1.042177 1.340896,1.58669 2.633584,1.916458 l 1.034999,0.26403 0,8.462892 0,8.462892 -0.973924,0.166262 c -1.204729,0.205661 -2.303088,1.017916 -2.804067,2.073651 -0.333001,0.701746 -0.37168,1.489005 -0.310486,6.319532 l 0.0699,5.517926 0.691511,1.451152 c 1.123382,2.357443 3.254888,4.178689 5.65546,4.832254 0.786977,0.214259 6.076705,0.267878 23.122582,0.23439 l 22.102164,-0.04342 1.504901,-0.71288 z m 14.888078,-2.666041 c 0.607647,-0.772495 0.584183,-1.31987 -0.08528,-1.989326 -0.677059,-0.677061 -1.383915,-0.69852 -2.06086,-0.06256 -0.648611,0.609339 -0.661042,1.453079 -0.03129,2.123424 0.662562,0.705264 1.590369,0.674786 2.177422,-0.07153 z M 14.867001,74.779669 c 0.508715,-0.460379 0.529205,-1.582645 0.03879,-2.124547 -0.438733,-0.484794 -1.601133,-0.537395 -2.199921,-0.09955 -0.577395,0.4222 -0.577395,1.862658 0,2.284859 0.573896,0.419642 1.664161,0.388989 2.16113,-0.06076 z m 72.64115,-1.51803 c 0.301393,-0.301393 0.547989,-0.758049 0.547989,-1.014791 0,-0.616019 -0.965708,-1.562779 -1.594055,-1.562779 -0.681595,0 -1.531504,0.849904 -1.531504,1.531492 0,0.72235 0.820397,1.594066 1.500217,1.594066 0.291153,0 0.77596,-0.246595 1.077353,-0.547988 z M 17.769305,71.877364 c 0.508715,-0.460379 0.529206,-1.582644 0.03879,-2.124547 -0.401165,-0.443282 -1.427356,-0.537683 -2.075309,-0.190909 -0.789506,0.422531 -0.741453,1.966762 0.07823,2.514081 0.437706,0.292265 1.539326,0.18053 1.958286,-0.198625 z M 14.828766,67.55851 c 0.926083,-0.926083 0.26208,-2.67905 -1.014791,-2.67905 -0.686988,0 -1.664259,0.917682 -1.664259,1.562779 0,0.645097 0.977271,1.562779 1.664259,1.562779 0.312555,0 0.769212,-0.200928 1.014791,-0.446508 z m 2.860208,-2.911002 c 0.973562,-0.907011 0.331253,-2.670353 -0.972695,-2.670353 -0.686987,0 -1.664258,0.917682 -1.664258,1.56278 0,0.627922 0.97038,1.562779 1.622161,1.562779 0.289402,0 0.746059,-0.204842 1.014792,-0.455206 z m 72.721482,-2.995087 c 0.669459,-0.669457 0.692923,-1.216831 0.08528,-1.989327 -0.311614,-0.396153 -0.676132,-0.588243 -1.116271,-0.588243 -1.446578,0 -2.08575,1.77602 -0.958332,2.662846 0.772495,0.607647 1.31987,0.584183 1.989327,-0.08528 z M 14.867001,60.268147 c 0.825827,-0.747364 0.401609,-2.190095 -0.765749,-2.604251 -0.985729,-0.349717 -2.157449,0.856983 -1.830969,1.885629 0.339341,1.069171 1.771436,1.465492 2.596718,0.718622 z m 72.64115,-1.518031 c 0.669459,-0.669456 0.692923,-1.216831 0.08528,-1.989326 -0.311614,-0.396153 -0.676132,-0.588244 -1.116271,-0.588244 -1.446578,0 -2.08575,1.776021 -0.958332,2.662847 0.772495,0.607646 1.31987,0.584182 1.989326,-0.08528 z M 17.769305,57.365842 c 0.551717,-0.499297 0.52958,-1.684075 -0.04111,-2.200547 -0.535301,-0.484439 -1.680383,-0.533415 -2.113974,-0.09042 -0.957665,0.978447 -0.290654,2.660447 1.055022,2.660447 0.380486,0 0.875517,-0.166267 1.100067,-0.369484 z m -3.082274,-4.335058 c 1.127417,-0.886826 0.488245,-2.662846 -0.958332,-2.662846 -0.722827,0 -1.578983,0.869197 -1.578983,1.603034 0,0.550958 0.971568,1.522524 1.522524,1.522524 0.234601,0 0.691258,-0.20822 1.014791,-0.462712 z m 2.902305,-2.902304 c 1.127417,-0.886826 0.488245,-2.662847 -0.958332,-2.662847 -1.403145,0 -1.979184,1.800509 -0.874968,2.734864 0.606532,0.51323 1.114655,0.493269 1.8333,-0.07202 z m 72.82112,-2.987581 c 0.606211,-0.606209 0.67569,-1.024788 0.291313,-1.755044 -0.339065,-0.644171 -0.623091,-0.814994 -1.361918,-0.819108 -1.409506,-0.0078 -2.029184,1.785939 -0.918722,2.659428 0.772495,0.607647 1.31987,0.584183 1.989327,-0.08528 z M 14.828766,45.6796 c 0.64884,-0.64884 0.577956,-1.650231 -0.157778,-2.228957 -1.435064,-1.128822 -3.200001,0.636114 -2.071179,2.071178 0.578728,0.735735 1.580118,0.806618 2.228957,0.157779 z m 72.679385,-1.441006 c 0.606211,-0.606208 0.67569,-1.024788 0.291314,-1.755043 -0.339066,-0.644171 -0.623092,-0.814994 -1.361918,-0.819109 -1.409506,-0.0078 -2.029184,1.78594 -0.918722,2.659429 0.772495,0.607646 1.31987,0.584182 1.989326,-0.08528 z m -69.77708,-1.461299 c 0.642418,-0.642418 0.577969,-1.650219 -0.141735,-2.216338 -0.718645,-0.565286 -1.226768,-0.585247 -1.8333,-0.07202 -0.712054,0.602518 -0.809926,1.423734 -0.253923,2.130577 0.578729,0.735734 1.580118,0.806617 2.228958,0.157778 z M 14.828766,28.265773 c 0.444126,-0.444125 0.588706,-1.451207 0.275649,-1.920052 -0.223898,-0.33532 -1.060661,-0.758998 -1.499017,-0.758998 -0.496359,0 -1.455682,1.003373 -1.455682,1.522523 0,1.315273 1.760367,2.075211 2.67905,1.156527 z m 0.05581,-4.421993 c 0.49359,-0.42392 0.505076,-1.555949 0.02121,-2.090613 -0.371259,-0.410237 -1.531654,-0.548186 -1.997077,-0.237414 -0.967715,0.64616 -0.8461,2.175996 0.208223,2.619305 0.733654,0.308479 1.14901,0.240035 1.767643,-0.291278 z M 27.899284,13.652772 c 0.301394,-0.301393 0.547988,-0.75805 0.547988,-1.014792 0,-0.627921 -0.97038,-1.562779 -1.622161,-1.562779 -0.718553,0 -1.503398,0.783736 -1.503398,1.501273 0,0.748395 0.808987,1.624285 1.500217,1.624285 0.291152,0 0.775961,-0.246594 1.077354,-0.547987 z m 5.804608,0 c 0.669459,-0.669457 0.692923,-1.216832 0.08528,-1.989328 -0.571906,-0.72706 -1.437519,-0.76853 -2.146136,-0.102819 -0.648611,0.609339 -0.661043,1.453078 -0.03129,2.123423 0.627696,0.668153 1.404328,0.656542 2.092145,-0.03128 z m 56.706564,0 c 0.669459,-0.669457 0.692923,-1.216832 0.08528,-1.989328 -0.571906,-0.72706 -1.437518,-0.76853 -2.146136,-0.102819 -0.648611,0.609339 -0.661042,1.453078 -0.03129,2.123423 0.627697,0.668153 1.404329,0.656542 2.092146,-0.03128 z"
     id="path4197"
     inkscape:connector-curvature="0" />
</svg>
