<?xml version="1.0" encoding="UTF-8" standalone="no"?>
<!-- Created with Inkscape (http://www.inkscape.org/) -->

<svg
   xmlns:dc="http://purl.org/dc/elements/1.1/"
   xmlns:cc="http://creativecommons.org/ns#"
   xmlns:rdf="http://www.w3.org/1999/02/22-rdf-syntax-ns#"
   xmlns:svg="http://www.w3.org/2000/svg"
   xmlns="http://www.w3.org/2000/svg"
   xmlns:xlink="http://www.w3.org/1999/xlink"
   xmlns:sodipodi="http://sodipodi.sourceforge.net/DTD/sodipodi-0.dtd"
   xmlns:inkscape="http://www.inkscape.org/namespaces/inkscape"
   version="1.1"
   width="100"
   height="100"
   id="svg5020"
   viewBox="0 0 100 100"
   preserveAspectRatio="none"
   inkscape:version="0.91 r13725"
   sodipodi:docname="chipset2.svg">
  <metadata
     id="metadata19">
    <rdf:RDF>
      <cc:Work
         rdf:about="">
        <dc:format>image/svg+xml</dc:format>
        <dc:type
           rdf:resource="http://purl.org/dc/dcmitype/StillImage" />
        <dc:title />
      </cc:Work>
    </rdf:RDF>
  </metadata>
  <sodipodi:namedview
     pagecolor="#ffffff"
     bordercolor="#666666"
     borderopacity="1"
     objecttolerance="10"
     gridtolerance="10"
     guidetolerance="10"
     inkscape:pageopacity="0"
     inkscape:pageshadow="2"
     inkscape:window-width="1920"
     inkscape:window-height="1015"
     id="namedview17"
     showgrid="false"
     inkscape:zoom="4.4791993"
     inkscape:cx="20.990582"
     inkscape:cy="46.729758"
     inkscape:window-x="0"
     inkscape:window-y="0"
     inkscape:window-maximized="1"
     inkscape:current-layer="svg5020"
     showguides="true"
     inkscape:guide-bbox="true">
    <sodipodi:guide
       orientation="0,1"
       position="106.26899,0.44650838"
       id="guide3932" />
    <sodipodi:guide
       orientation="1,0"
       position="99.571368,-8.4836591"
       id="guide3934" />
    <sodipodi:guide
       orientation="1,0"
       position="0.22325419,68.539036"
       id="guide3946" />
  </sodipodi:namedview>
  <defs
     id="defs5022">
    <filter
       x="-0.26370296"
       y="-0.29216129"
       width="1.5274059"
       height="1.5843226"
       color-interpolation-filters="sRGB"
       id="filter20257">
      <feGaussianBlur
         stdDeviation="8.4844688"
         id="feGaussianBlur20259" />
    </filter>
    <linearGradient
       x1="302.36649"
       y1="85.341019"
       x2="273.78458"
       y2="109.91143"
       id="linearGradient20265"
       xlink:href="#linearGradient13263"
       gradientUnits="userSpaceOnUse"
       gradientTransform="translate(7.0201173,-1.0028739)" />
    <linearGradient
       id="linearGradient13263">
      <stop
         id="stop1"
         style="stop-color:#a9c3e4;stop-opacity:1"
         offset="0" />
      <stop
         id="stop2"
         style="stop-color:#3465a4;stop-opacity:1"
         offset="1" />
    </linearGradient>
    <linearGradient
       inkscape:collect="always"
       xlink:href="#linearGradient13263"
       id="linearGradient3895"
       gradientUnits="userSpaceOnUse"
       gradientTransform="translate(7.0201173,-1.0028739)"
       x1="302.36649"
       y1="85.341019"
       x2="273.78458"
       y2="109.91143" />
    <linearGradient
       inkscape:collect="always"
       xlink:href="#linearGradient13263"
       id="linearGradient3903"
       gradientUnits="userSpaceOnUse"
       gradientTransform="translate(7.0201173,-1.0028739)"
       x1="302.36649"
       y1="85.341019"
       x2="273.78458"
       y2="109.91143" />
    <linearGradient
       inkscape:collect="always"
       xlink:href="#linearGradient13263"
       id="linearGradient3910"
       gradientUnits="userSpaceOnUse"
       gradientTransform="translate(7.0201173,-1.0028739)"
       x1="302.36649"
       y1="85.341019"
       x2="273.78458"
       y2="109.91143" />
    <linearGradient
       inkscape:collect="always"
       xlink:href="#linearGradient13263"
       id="linearGradient3913"
       gradientUnits="userSpaceOnUse"
       gradientTransform="matrix(1.0353074,0,0,1.1486622,-226.39584,-83.999193)"
       x1="302.36649"
       y1="85.341019"
       x2="273.78458"
       y2="109.91143" />
    <linearGradient
       inkscape:collect="always"
       xlink:href="#linearGradient13263"
       id="linearGradient3930"
       gradientUnits="userSpaceOnUse"
       gradientTransform="matrix(1.0353074,0,0,1.1486622,-226.39584,-83.999193)"
       x1="302.36649"
       y1="85.341019"
       x2="273.78458"
       y2="109.91143" />
    <linearGradient
       inkscape:collect="always"
       xlink:href="#linearGradient13263"
       id="linearGradient3937"
       gradientUnits="userSpaceOnUse"
       gradientTransform="matrix(1.2223334,0,0,1.3561655,-277.20531,-108.66092)"
       x1="302.36649"
       y1="85.341019"
       x2="273.78458"
       y2="109.91143" />
    <linearGradient
       inkscape:collect="always"
       xlink:href="#linearGradient13263"
       id="linearGradient3944"
       gradientUnits="userSpaceOnUse"
       gradientTransform="matrix(1.2223334,0,0,1.3561655,-277.20531,-108.66092)"
       x1="302.36649"
       y1="85.341019"
       x2="273.78458"
       y2="109.91143" />
    <linearGradient
       inkscape:collect="always"
       xlink:href="#linearGradient13263"
       id="linearGradient3949"
       gradientUnits="userSpaceOnUse"
       gradientTransform="matrix(1.234087,0,0,1.369206,-280.09067,-109.84092)"
       x1="302.36649"
       y1="85.341019"
       x2="273.78458"
       y2="109.91143" />
    <linearGradient
       inkscape:collect="always"
       xlink:href="#linearGradient13263"
       id="linearGradient3967"
       gradientUnits="userSpaceOnUse"
       gradientTransform="matrix(1.234087,0,0,1.369206,-280.09067,-109.84092)"
       x1="302.36649"
       y1="85.341019"
       x2="273.78458"
       y2="109.91143" />
    <linearGradient
       inkscape:collect="always"
       xlink:href="#linearGradient13263"
       id="linearGradient3975"
       gradientUnits="userSpaceOnUse"
       gradientTransform="matrix(1.234087,0,0,1.369206,-280.09067,-109.84092)"
       x1="302.36649"
       y1="85.341019"
       x2="273.78458"
       y2="109.91143" />
    <linearGradient
       inkscape:collect="always"
       xlink:href="#linearGradient13263"
       id="linearGradient3981"
       gradientUnits="userSpaceOnUse"
       gradientTransform="matrix(1.234087,0,0,1.369206,-280.09067,-109.84092)"
       x1="302.36649"
       y1="85.341019"
       x2="273.78458"
       y2="109.91143" />
    <linearGradient
       inkscape:collect="always"
       xlink:href="#linearGradient13263"
       id="linearGradient3984"
       gradientUnits="userSpaceOnUse"
       gradientTransform="matrix(1.1823136,0,0,1.311764,-268.33186,-100.78716)"
       x1="302.36649"
       y1="85.341019"
       x2="273.78458"
       y2="109.91143" />
  </defs>
  <rect
     width="100"
     height="100"
     x="-0.0098983888"
     y="0.0098999729"
     id="border"
     style="opacity:0.64285715;fill:none;stroke:none"
     inkscape:export-filename="C:\Users\tempadmin\Desktop\Forme SVG\png\square_after_1.png"
     inkscape:export-xdpi="90"
     inkscape:export-ydpi="90" />
  <rect
     style="fill:none;fill-rule:evenodd;stroke:#000000;stroke-width:0px;stroke-linecap:butt;stroke-linejoin:miter;stroke-opacity:1"
     id="externalBorder"
     width="99"
     height="99"
     x="0.2"
     y="0.2" />
  <g
     id="g4"
     transform="matrix(1.4874383,0,0,1.4874383,5.376851,5.376851)">
    <circle
       cx="5"
       cy="5"
       r="1"
       id="circle6" />
    <circle
       cx="55"
       cy="5"
       r="1"
       id="circle8" />
    <circle
       cx="5"
       cy="55"
       r="1"
       id="circle10" />
    <circle
       cx="11"
       cy="56"
       r="1"
       id="circle12" />
    <circle
       cx="15"
       cy="56"
       r="1"
       id="circle14" />
    <circle
       cx="19"
       cy="56"
       r="1"
       id="circle16" />
    <circle
       cx="23"
       cy="56"
       r="1"
       id="circle18" />
    <circle
       cx="38"
       cy="39"
       r="1"
       id="circle20" />
    <circle
       cx="34"
       cy="39"
       r="1"
       id="circle22" />
    <circle
       cx="36"
       cy="36"
       r="1"
       id="circle24" />
    <circle
       cx="30"
       cy="39"
       r="1"
       id="circle26" />
    <circle
       cx="26"
       cy="39"
       r="1"
       id="circle28" />
    <circle
       cx="32"
       cy="36"
       r="1"
       id="circle30" />
    <circle
       cx="28"
       cy="36"
       r="1"
       id="circle32" />
    <circle
       cx="22"
       cy="39"
       r="1"
       id="circle34" />
    <circle
       cx="24"
       cy="36"
       r="1"
       id="circle36" />
    <circle
       cx="38"
       cy="33"
       r="1"
       id="circle38" />
    <circle
       cx="34"
       cy="33"
       r="1"
       id="circle40" />
    <circle
       cx="36"
       cy="30"
       r="1"
       id="circle42" />
    <circle
       cx="30"
       cy="33"
       r="1"
       id="circle44" />
    <circle
       cx="26"
       cy="33"
       r="1"
       id="circle46" />
    <circle
       cx="32"
       cy="30"
       r="1"
       id="circle48" />
    <circle
       cx="28"
       cy="30"
       r="1"
       id="circle50" />
    <circle
       cx="22"
       cy="33"
       r="1"
       id="circle52" />
    <circle
       cx="24"
       cy="30"
       r="1"
       id="circle54" />
    <circle
       cx="38"
       cy="27"
       r="1"
       id="circle56" />
    <circle
       cx="34"
       cy="27"
       r="1"
       id="circle58" />
    <circle
       cx="36"
       cy="24"
       r="1"
       id="circle60" />
    <circle
       cx="30"
       cy="27"
       r="1"
       id="circle62" />
    <circle
       cx="26"
       cy="27"
       r="1"
       id="circle64" />
    <circle
       cx="32"
       cy="24"
       r="1"
       id="circle66" />
    <circle
       cx="28"
       cy="24"
       r="1"
       id="circle68" />
    <circle
       cx="22"
       cy="27"
       r="1"
       id="circle70" />
    <circle
       cx="24"
       cy="24"
       r="1"
       id="circle72" />
    <circle
       cx="38"
       cy="21"
       r="1"
       id="circle74" />
    <circle
       cx="34"
       cy="21"
       r="1"
       id="circle76" />
    <circle
       cx="30"
       cy="21"
       r="1"
       id="circle78" />
    <circle
       cx="26"
       cy="21"
       r="1"
       id="circle80" />
    <circle
       cx="22"
       cy="21"
       r="1"
       id="circle82" />
    <circle
       cx="55"
       cy="55"
       r="1"
       id="circle84" />
    <path
       inkscape:connector-curvature="0"
       d="m 51,25 c 0.55,0 1,-0.45 1,-1 0,-0.55 -0.45,-1 -1,-1 l -2,0 0,-2 -4,0 0,-1.64 C 45,16.96 43.05,15 40.64,15 L 39,15 39,11 37,11 37,9 C 37,8.45 36.55,8 36,8 35.45,8 35,8.45 35,9 l 0,2 -2,0 0,-2 C 33,8.45 32.55,8 32,8 31.45,8 31,8.45 31,9 l 0,2 -2,0 0,-2 C 29,8.45 28.55,8 28,8 27.45,8 27,8.45 27,9 l 0,2 -2,0 0,-2 C 25,8.45 24.55,8 24,8 23.45,8 23,8.45 23,9 l 0,2 -2,0 0,4 -1.64,0 C 16.96,15 15,16.96 15,19.36 l 0,1.64 -4,0 0,2 -2,0 c -0.55,0 -1,0.45 -1,1 0,0.55 0.45,1 1,1 l 2,0 0,2 -2,0 c -0.55,0 -1,0.45 -1,1 0,0.55 0.45,1 1,1 l 2,0 0,2 -2,0 c -0.55,0 -1,0.45 -1,1 0,0.55 0.45,1 1,1 l 2,0 0,2 -2,0 c -0.55,0 -1,0.45 -1,1 0,0.55 0.45,1 1,1 l 2,0 0,2 4,0 0,1.64 c 0,2.4 1.95,4.36 4.36,4.36 l 1.64,0 0,4 2,0 0,2 c 0,0.55 0.45,1 1,1 0.55,0 1,-0.45 1,-1 l 0,-2 2,0 0,2 c 0,0.55 0.45,1 1,1 0.55,0 1,-0.45 1,-1 l 0,-2 2,0 0,2 c 0,0.55 0.45,1 1,1 0.55,0 1,-0.45 1,-1 l 0,-2 2,0 0,2 c 0,0.55 0.45,1 1,1 0.55,0 1,-0.45 1,-1 l 0,-2 2,0 0,-4 1.64,0 C 43.04,45 45,43.04 45,40.64 l 0,-1.64 4,0 0,-2 2,0 c 0.55,0 1,-0.45 1,-1 0,-0.55 -0.45,-1 -1,-1 l -2,0 0,-2 2,0 c 0.55,0 1,-0.45 1,-1 0,-0.55 -0.45,-1 -1,-1 l -2,0 0,-2 2,0 c 0.55,0 1,-0.45 1,-1 0,-0.55 -0.45,-1 -1,-1 l -2,0 0,-2 2,0 z m -28,-12 14,0 0,2 -14,0 0,-2 z m -10,24 0,-14 2,0 0,14 -2,0 z m 24,10 -14,0 0,-2 14,0 0,2 z m 6,-6.36 C 43,41.94 41.94,43 40.64,43 L 39,43 21,43 19.36,43 C 18.06,43 17,41.94 17,40.64 L 17,39 17,21 17,19.36 C 17,18.06 18.06,17 19.36,17 l 1.64,0 18,0 1.64,0 c 1.3,0 2.36,1.06 2.36,2.36 l 0,1.64 0,18 0,1.64 z m 4,-3.64 -2,0 0,-14 2,0 0,14 z"
       id="path86" />
    <circle
       cx="4"
       cy="37"
       r="1"
       id="circle88" />
    <circle
       cx="4"
       cy="41"
       r="1"
       id="circle90" />
    <circle
       cx="4"
       cy="45"
       r="1"
       id="circle92" />
    <circle
       cx="4"
       cy="49"
       r="1"
       id="circle94" />
    <path
       inkscape:connector-curvature="0"
       d="M 54.5,0 46,0 46,1 C 46,2.65 44.65,4 43,4 41.35,4 40,2.65 40,1 L 40,0 5.5,0 C 2.47,0 0,2.47 0,5.5 l 0,6.5 4,0 0,2 -4,0 0,40.5 C 0,57.53 2.47,60 5.5,60 l 34.5,0 0,-1 c 0,-1.65 1.35,-3 3,-3 1.65,0 3,1.35 3,3 l 0,1 8.5,0 c 3.03,0 5.5,-2.47 5.5,-5.5 l 0,-49 C 60,2.47 57.53,0 54.5,0 Z m 0,58 -6.6,0 c -0.46,-2.28 -2.48,-4 -4.9,-4 -2.42,0 -4.44,1.72 -4.9,4 L 5.5,58 C 3.57,58 2,56.43 2,54.5 L 2,16 6,16 6,10 2,10 2,5.5 C 2,3.57 3.57,2 5.5,2 l 32.6,0 c 0.46,2.28 2.48,4 4.9,4 2.42,0 4.44,-1.72 4.9,-4 l 6.6,0 C 56.43,2 58,3.57 58,5.5 l 0,11.5 -2,0 c -0.55,0 -1,0.45 -1,1 0,0.55 0.45,1 1,1 l 2,0 0,1 -2,0 c -0.55,0 -1,0.45 -1,1 0,0.55 0.45,1 1,1 l 2,0 0,1 -2,0 c -0.55,0 -1,0.45 -1,1 0,0.55 0.45,1 1,1 l 2,0 0,1 -2,0 c -0.55,0 -1,0.45 -1,1 0,0.55 0.45,1 1,1 l 2,0 0,1 -2,0 c -0.55,0 -1,0.45 -1,1 0,0.55 0.45,1 1,1 l 2,0 0,1 -2,0 c -0.55,0 -1,0.45 -1,1 0,0.55 0.45,1 1,1 l 2,0 0,1 -2,0 c -0.55,0 -1,0.45 -1,1 0,0.55 0.45,1 1,1 l 2,0 0,1 -2,0 c -0.55,0 -1,0.45 -1,1 0,0.55 0.45,1 1,1 l 2,0 0,1 -2,0 c -0.55,0 -1,0.45 -1,1 0,0.55 0.45,1 1,1 l 2,0 0,11.5 c 0,1.93 -1.57,3.5 -3.5,3.5 z"
       id="path96" />
  </g>
</svg>
