<?xml version="1.0" encoding="UTF-8" standalone="no"?>
<!-- Created with Inkscape (http://www.inkscape.org/) -->

<svg
   xmlns:dc="http://purl.org/dc/elements/1.1/"
   xmlns:cc="http://creativecommons.org/ns#"
   xmlns:rdf="http://www.w3.org/1999/02/22-rdf-syntax-ns#"
   xmlns:svg="http://www.w3.org/2000/svg"
   xmlns="http://www.w3.org/2000/svg"
   xmlns:xlink="http://www.w3.org/1999/xlink"
   xmlns:sodipodi="http://sodipodi.sourceforge.net/DTD/sodipodi-0.dtd"
   xmlns:inkscape="http://www.inkscape.org/namespaces/inkscape"
   version="1.1"
   width="100"
   height="100"
   id="svg5020"
   viewBox="0 0 100 100"
   preserveAspectRatio="none"
   inkscape:version="0.91 r13725"
   sodipodi:docname="chipset.svg">
  <metadata
     id="metadata19">
    <rdf:RDF>
      <cc:Work
         rdf:about="">
        <dc:format>image/svg+xml</dc:format>
        <dc:type
           rdf:resource="http://purl.org/dc/dcmitype/StillImage" />
        <dc:title />
      </cc:Work>
    </rdf:RDF>
  </metadata>
  <sodipodi:namedview
     pagecolor="#ffffff"
     bordercolor="#666666"
     borderopacity="1"
     objecttolerance="10"
     gridtolerance="10"
     guidetolerance="10"
     inkscape:pageopacity="0"
     inkscape:pageshadow="2"
     inkscape:window-width="1920"
     inkscape:window-height="1015"
     id="namedview17"
     showgrid="false"
     inkscape:zoom="4.4791993"
     inkscape:cx="20.990582"
     inkscape:cy="46.729758"
     inkscape:window-x="0"
     inkscape:window-y="0"
     inkscape:window-maximized="1"
     inkscape:current-layer="svg5020"
     showguides="true"
     inkscape:guide-bbox="true">
    <sodipodi:guide
       orientation="0,1"
       position="106.26899,0.44650838"
       id="guide3932" />
    <sodipodi:guide
       orientation="1,0"
       position="99.571368,-8.4836591"
       id="guide3934" />
    <sodipodi:guide
       orientation="1,0"
       position="0.22325419,68.539036"
       id="guide3946" />
  </sodipodi:namedview>
  <defs
     id="defs5022">
    <filter
       x="-0.26370296"
       y="-0.29216129"
       width="1.5274059"
       height="1.5843226"
       color-interpolation-filters="sRGB"
       id="filter20257">
      <feGaussianBlur
         stdDeviation="8.4844688"
         id="feGaussianBlur20259" />
    </filter>
    <linearGradient
       x1="302.36649"
       y1="85.341019"
       x2="273.78458"
       y2="109.91143"
       id="linearGradient20265"
       xlink:href="#linearGradient13263"
       gradientUnits="userSpaceOnUse"
       gradientTransform="translate(7.0201173,-1.0028739)" />
    <linearGradient
       id="linearGradient13263">
      <stop
         id="stop1"
         style="stop-color:#a9c3e4;stop-opacity:1"
         offset="0" />
      <stop
         id="stop2"
         style="stop-color:#3465a4;stop-opacity:1"
         offset="1" />
    </linearGradient>
    <linearGradient
       inkscape:collect="always"
       xlink:href="#linearGradient13263"
       id="linearGradient3895"
       gradientUnits="userSpaceOnUse"
       gradientTransform="translate(7.0201173,-1.0028739)"
       x1="302.36649"
       y1="85.341019"
       x2="273.78458"
       y2="109.91143" />
    <linearGradient
       inkscape:collect="always"
       xlink:href="#linearGradient13263"
       id="linearGradient3903"
       gradientUnits="userSpaceOnUse"
       gradientTransform="translate(7.0201173,-1.0028739)"
       x1="302.36649"
       y1="85.341019"
       x2="273.78458"
       y2="109.91143" />
    <linearGradient
       inkscape:collect="always"
       xlink:href="#linearGradient13263"
       id="linearGradient3910"
       gradientUnits="userSpaceOnUse"
       gradientTransform="translate(7.0201173,-1.0028739)"
       x1="302.36649"
       y1="85.341019"
       x2="273.78458"
       y2="109.91143" />
    <linearGradient
       inkscape:collect="always"
       xlink:href="#linearGradient13263"
       id="linearGradient3913"
       gradientUnits="userSpaceOnUse"
       gradientTransform="matrix(1.0353074,0,0,1.1486622,-226.39584,-83.999193)"
       x1="302.36649"
       y1="85.341019"
       x2="273.78458"
       y2="109.91143" />
    <linearGradient
       inkscape:collect="always"
       xlink:href="#linearGradient13263"
       id="linearGradient3930"
       gradientUnits="userSpaceOnUse"
       gradientTransform="matrix(1.0353074,0,0,1.1486622,-226.39584,-83.999193)"
       x1="302.36649"
       y1="85.341019"
       x2="273.78458"
       y2="109.91143" />
    <linearGradient
       inkscape:collect="always"
       xlink:href="#linearGradient13263"
       id="linearGradient3937"
       gradientUnits="userSpaceOnUse"
       gradientTransform="matrix(1.2223334,0,0,1.3561655,-277.20531,-108.66092)"
       x1="302.36649"
       y1="85.341019"
       x2="273.78458"
       y2="109.91143" />
    <linearGradient
       inkscape:collect="always"
       xlink:href="#linearGradient13263"
       id="linearGradient3944"
       gradientUnits="userSpaceOnUse"
       gradientTransform="matrix(1.2223334,0,0,1.3561655,-277.20531,-108.66092)"
       x1="302.36649"
       y1="85.341019"
       x2="273.78458"
       y2="109.91143" />
    <linearGradient
       inkscape:collect="always"
       xlink:href="#linearGradient13263"
       id="linearGradient3949"
       gradientUnits="userSpaceOnUse"
       gradientTransform="matrix(1.234087,0,0,1.369206,-280.09067,-109.84092)"
       x1="302.36649"
       y1="85.341019"
       x2="273.78458"
       y2="109.91143" />
    <linearGradient
       inkscape:collect="always"
       xlink:href="#linearGradient13263"
       id="linearGradient3967"
       gradientUnits="userSpaceOnUse"
       gradientTransform="matrix(1.234087,0,0,1.369206,-280.09067,-109.84092)"
       x1="302.36649"
       y1="85.341019"
       x2="273.78458"
       y2="109.91143" />
    <linearGradient
       inkscape:collect="always"
       xlink:href="#linearGradient13263"
       id="linearGradient3975"
       gradientUnits="userSpaceOnUse"
       gradientTransform="matrix(1.234087,0,0,1.369206,-280.09067,-109.84092)"
       x1="302.36649"
       y1="85.341019"
       x2="273.78458"
       y2="109.91143" />
    <linearGradient
       inkscape:collect="always"
       xlink:href="#linearGradient13263"
       id="linearGradient3981"
       gradientUnits="userSpaceOnUse"
       gradientTransform="matrix(1.234087,0,0,1.369206,-280.09067,-109.84092)"
       x1="302.36649"
       y1="85.341019"
       x2="273.78458"
       y2="109.91143" />
    <linearGradient
       inkscape:collect="always"
       xlink:href="#linearGradient13263"
       id="linearGradient3984"
       gradientUnits="userSpaceOnUse"
       gradientTransform="matrix(1.1823136,0,0,1.311764,-268.33186,-100.78716)"
       x1="302.36649"
       y1="85.341019"
       x2="273.78458"
       y2="109.91143" />
  </defs>
  <rect
     width="100"
     height="100"
     x="-0.0098983888"
     y="0.0098999729"
     id="border"
     style="opacity:0.64285715;fill:none;stroke:none"
     inkscape:export-filename="C:\Users\tempadmin\Desktop\Forme SVG\png\square_after_1.png"
     inkscape:export-xdpi="90"
     inkscape:export-ydpi="90" />
  <rect
     style="fill:none;fill-rule:evenodd;stroke:#000000;stroke-width:0px;stroke-linecap:butt;stroke-linejoin:miter;stroke-opacity:1"
     id="externalBorder"
     width="99"
     height="99"
     x="0.2"
     y="0.2" />
  <g
     id="g4"
     transform="matrix(1.4539502,0,0,1.4539502,7.9532118,6.8190653)">
    <circle
       cx="4"
       cy="51"
       r="1"
       id="circle6" />
    <circle
       cx="4"
       cy="56"
       r="1"
       id="circle8" />
    <circle
       cx="56"
       cy="4"
       r="1"
       id="circle10" />
    <circle
       cx="56"
       cy="56"
       r="1"
       id="circle12" />
    <circle
       cx="6"
       cy="49"
       r="1"
       id="circle14" />
    <circle
       cx="54"
       cy="35"
       r="1"
       id="circle16" />
    <circle
       cx="56"
       cy="37"
       r="1"
       id="circle18" />
    <circle
       cx="54"
       cy="45"
       r="1"
       id="circle20" />
    <circle
       cx="56"
       cy="47"
       r="1"
       id="circle22" />
    <circle
       cx="54"
       cy="25"
       r="1"
       id="circle24" />
    <circle
       cx="56"
       cy="27"
       r="1"
       id="circle26" />
    <circle
       cx="4"
       cy="46"
       r="1"
       id="circle28" />
    <circle
       cx="6"
       cy="44"
       r="1"
       id="circle30" />
    <circle
       cx="4"
       cy="41"
       r="1"
       id="circle32" />
    <circle
       cx="6"
       cy="39"
       r="1"
       id="circle34" />
    <circle
       cx="4"
       cy="36"
       r="1"
       id="circle36" />
    <circle
       cx="6"
       cy="34"
       r="1"
       id="circle38" />
    <circle
       cx="4"
       cy="31"
       r="1"
       id="circle40" />
    <circle
       cx="6"
       cy="29"
       r="1"
       id="circle42" />
    <circle
       cx="4"
       cy="26"
       r="1"
       id="circle44" />
    <circle
       cx="6"
       cy="24"
       r="1"
       id="circle46" />
    <circle
       cx="4"
       cy="11"
       r="1"
       id="circle48" />
    <circle
       cx="17"
       cy="4"
       r="1"
       id="circle50" />
    <circle
       cx="13"
       cy="4"
       r="1"
       id="circle52" />
    <circle
       cx="4"
       cy="14"
       r="1"
       id="circle54" />
    <path
       inkscape:connector-curvature="0"
       d="m 49,0 0,1 C 49,3.21 47.21,5 45,5 42.79,5 41,3.21 41,1 L 41,0 11.41,0 0,0 0,11.41 0,60 l 41,0 0,-1 c 0,-2.21 1.79,-4 4,-4 2.21,0 4,1.79 4,4 l 0,1 11,0 L 60,0 49,0 Z M 2,2 6.59,2 2,6.59 2,2 Z m 56,56 -7.08,0 C 50.44,55.17 47.97,53 45,53 c -2.97,0 -5.44,2.17 -5.92,5 L 2,58 2,9.41 9.41,2 39.08,2 c 0.48,2.83 2.95,5 5.92,5 2.97,0 5.44,-2.17 5.92,-5 L 58,2 58,58 Z"
       id="path56" />
    <path
       inkscape:connector-curvature="0"
       d="M 44.03,10 15.97,10 C 12.68,10 10,12.68 10,15.97 l 0,5.53 c 0,1.38 1.12,2.5 2.5,2.5 0.28,0 0.5,0.22 0.5,0.5 l 0,11 C 13,35.78 12.78,36 12.5,36 11.12,36 10,37.12 10,38.5 l 0,5.53 c 0,3.29 2.68,5.97 5.97,5.97 l 28.07,0 c 3.29,0 5.97,-2.68 5.97,-5.97 l 0,-28.06 C 50,12.68 47.32,10 44.03,10 Z M 15,35.5 l 0,-11 0,-7.19 C 15,16.03 16.04,15 17.31,15 l 25.38,0 c 1.27,0 2.31,1.04 2.31,2.31 l 0,25.38 C 45,43.97 43.96,45 42.69,45 L 17.31,45 C 16.04,45 15,43.96 15,42.69 l 0,-7.19 z m 33,8.53 C 48,46.22 46.22,48 44.03,48 L 15.97,48 C 13.78,48 12,46.22 12,44.03 l 0,-5.53 c 0,-0.28 0.22,-0.5 0.5,-0.5 0.17,0 0.34,-0.02 0.5,-0.05 l 0,4.74 c 0,2.38 1.93,4.31 4.31,4.31 l 25.38,0 C 45.07,47 47,45.07 47,42.69 L 47,17.31 C 47,14.93 45.07,13 42.69,13 L 17.31,13 C 14.93,13 13,14.93 13,17.31 l 0,4.74 C 12.84,22.02 12.67,22 12.5,22 12.22,22 12,21.78 12,21.5 l 0,-5.53 C 12,13.78 13.78,12 15.97,12 l 28.07,0 c 2.19,0 3.97,1.78 3.97,3.97 l 0,28.06 z"
       id="path58" />
    <circle
       cx="37"
       cy="56"
       r="1"
       id="circle60" />
    <circle
       cx="35"
       cy="54"
       r="1"
       id="circle62" />
    <circle
       cx="32"
       cy="56"
       r="1"
       id="circle64" />
    <circle
       cx="30"
       cy="54"
       r="1"
       id="circle66" />
    <circle
       cx="27"
       cy="56"
       r="1"
       id="circle68" />
    <circle
       cx="25"
       cy="54"
       r="1"
       id="circle70" />
    <circle
       cx="22"
       cy="56"
       r="1"
       id="circle72" />
    <circle
       cx="20"
       cy="54"
       r="1"
       id="circle74" />
    <circle
       cx="17"
       cy="56"
       r="1"
       id="circle76" />
    <circle
       cx="15"
       cy="54"
       r="1"
       id="circle78" />
    <circle
       cx="12"
       cy="56"
       r="1"
       id="circle80" />
    <circle
       cx="10"
       cy="54"
       r="1"
       id="circle82" />
    <path
       inkscape:connector-curvature="0"
       d="m 27.06,39 c 2.15,0 4.43,-0.51 6.61,-1.46 2.86,-1.26 5.25,-3.16 6.73,-5.37 1.57,-2.34 1.94,-4.75 1.04,-6.79 -1.09,-2.48 -3.93,-3.96 -7.59,-3.96 -2.15,0 -4.43,0.51 -6.61,1.46 -2.86,1.26 -5.25,3.16 -6.73,5.37 -1.57,2.34 -1.94,4.75 -1.04,6.79 1.09,2.48 3.93,3.96 7.59,3.96 z m -4.88,-9.63 c 1.27,-1.89 3.35,-3.54 5.87,-4.65 1.93,-0.85 3.94,-1.3 5.81,-1.3 2.85,0 5,1.03 5.76,2.77 0.61,1.39 0.3,3.12 -0.87,4.87 -1.27,1.89 -3.35,3.54 -5.87,4.65 -1.93,0.85 -3.94,1.3 -5.81,1.3 -2.84,0 -5,-1.03 -5.76,-2.77 -0.62,-1.39 -0.3,-3.12 0.87,-4.87 z"
       id="path84" />
    <path
       inkscape:connector-curvature="0"
       d="m 27,31 7,0 c 0.55,0 1,-0.45 1,-1 0,-0.55 -0.45,-1 -1,-1 l -7,0 c -0.55,0 -1,0.45 -1,1 0,0.55 0.45,1 1,1 z"
       id="path86" />
  </g>
</svg>
