<?xml version="1.0" encoding="UTF-8" standalone="no"?>
<!-- Created with Inkscape (http://www.inkscape.org/) -->

<svg
   xmlns:dc="http://purl.org/dc/elements/1.1/"
   xmlns:cc="http://creativecommons.org/ns#"
   xmlns:rdf="http://www.w3.org/1999/02/22-rdf-syntax-ns#"
   xmlns:svg="http://www.w3.org/2000/svg"
   xmlns="http://www.w3.org/2000/svg"
   xmlns:xlink="http://www.w3.org/1999/xlink"
   xmlns:sodipodi="http://sodipodi.sourceforge.net/DTD/sodipodi-0.dtd"
   xmlns:inkscape="http://www.inkscape.org/namespaces/inkscape"
   version="1.1"
   width="100"
   height="100"
   id="svg5020"
   viewBox="0 0 100 100"
   preserveAspectRatio="none"
   inkscape:version="0.91 r13725"
   sodipodi:docname="chipset2.svg">
  <metadata
     id="metadata19">
    <rdf:RDF>
      <cc:Work
         rdf:about="">
        <dc:format>image/svg+xml</dc:format>
        <dc:type
           rdf:resource="http://purl.org/dc/dcmitype/StillImage" />
        <dc:title></dc:title>
      </cc:Work>
    </rdf:RDF>
  </metadata>
  <sodipodi:namedview
     pagecolor="#ffffff"
     bordercolor="#666666"
     borderopacity="1"
     objecttolerance="10"
     gridtolerance="10"
     guidetolerance="10"
     inkscape:pageopacity="0"
     inkscape:pageshadow="2"
     inkscape:window-width="1920"
     inkscape:window-height="1051"
     id="namedview17"
     showgrid="false"
     inkscape:zoom="3.1672722"
     inkscape:cx="-6.581232"
     inkscape:cy="40.059823"
     inkscape:window-x="1920"
     inkscape:window-y="0"
     inkscape:window-maximized="1"
     inkscape:current-layer="svg5020"
     showguides="true"
     inkscape:guide-bbox="true">
    <sodipodi:guide
       orientation="0,1"
       position="106.26899,0.44650838"
       id="guide3932" />
    <sodipodi:guide
       orientation="1,0"
       position="99.571368,-8.4836591"
       id="guide3934" />
    <sodipodi:guide
       orientation="1,0"
       position="0.22325419,68.539036"
       id="guide3946" />
  </sodipodi:namedview>
  <defs
     id="defs5022">
    <linearGradient
       id="linearGradient4469">
      <stop
         offset="0"
         style="stop-color:#ffffff;stop-opacity:1"
         id="stop4471" />
      <stop
         offset="1"
         style="stop-color:#f7b78b;stop-opacity:1"
         id="stop4473" />
    </linearGradient>
    <linearGradient
       id="linearGradient4425">
      <stop
         offset="0"
         style="stop-color:#a9c3e4;stop-opacity:1"
         id="stop4427" />
      <stop
         offset="1"
         style="stop-color:#ffffff;stop-opacity:1"
         id="stop4429" />
    </linearGradient>
    <filter
       x="-0.26370296"
       y="-0.29216129"
       width="1.5274059"
       height="1.5843226"
       color-interpolation-filters="sRGB"
       id="filter20257">
      <feGaussianBlur
         stdDeviation="8.4844688"
         id="feGaussianBlur20259" />
    </filter>
    <linearGradient
       x1="302.36649"
       y1="85.341019"
       x2="273.78458"
       y2="109.91143"
       id="linearGradient20265"
       xlink:href="#linearGradient13263"
       gradientUnits="userSpaceOnUse"
       gradientTransform="translate(7.0201173,-1.0028739)" />
    <linearGradient
       id="linearGradient13263">
      <stop
         id="stop1"
         style="stop-color:#a9c3e4;stop-opacity:1"
         offset="0" />
      <stop
         id="stop2"
         style="stop-color:#3465a4;stop-opacity:1"
         offset="1" />
    </linearGradient>
    <linearGradient
       inkscape:collect="always"
       xlink:href="#linearGradient13263"
       id="linearGradient3895"
       gradientUnits="userSpaceOnUse"
       gradientTransform="translate(7.0201173,-1.0028739)"
       x1="302.36649"
       y1="85.341019"
       x2="273.78458"
       y2="109.91143" />
    <linearGradient
       inkscape:collect="always"
       xlink:href="#linearGradient13263"
       id="linearGradient3903"
       gradientUnits="userSpaceOnUse"
       gradientTransform="translate(7.0201173,-1.0028739)"
       x1="302.36649"
       y1="85.341019"
       x2="273.78458"
       y2="109.91143" />
    <linearGradient
       inkscape:collect="always"
       xlink:href="#linearGradient13263"
       id="linearGradient3910"
       gradientUnits="userSpaceOnUse"
       gradientTransform="translate(7.0201173,-1.0028739)"
       x1="302.36649"
       y1="85.341019"
       x2="273.78458"
       y2="109.91143" />
    <linearGradient
       inkscape:collect="always"
       xlink:href="#linearGradient13263"
       id="linearGradient3913"
       gradientUnits="userSpaceOnUse"
       gradientTransform="matrix(1.0353074,0,0,1.1486622,-226.39584,-83.999193)"
       x1="302.36649"
       y1="85.341019"
       x2="273.78458"
       y2="109.91143" />
    <linearGradient
       inkscape:collect="always"
       xlink:href="#linearGradient13263"
       id="linearGradient3930"
       gradientUnits="userSpaceOnUse"
       gradientTransform="matrix(1.0353074,0,0,1.1486622,-226.39584,-83.999193)"
       x1="302.36649"
       y1="85.341019"
       x2="273.78458"
       y2="109.91143" />
    <linearGradient
       inkscape:collect="always"
       xlink:href="#linearGradient13263"
       id="linearGradient3937"
       gradientUnits="userSpaceOnUse"
       gradientTransform="matrix(1.2223334,0,0,1.3561655,-277.20531,-108.66092)"
       x1="302.36649"
       y1="85.341019"
       x2="273.78458"
       y2="109.91143" />
    <linearGradient
       inkscape:collect="always"
       xlink:href="#linearGradient13263"
       id="linearGradient3944"
       gradientUnits="userSpaceOnUse"
       gradientTransform="matrix(1.2223334,0,0,1.3561655,-277.20531,-108.66092)"
       x1="302.36649"
       y1="85.341019"
       x2="273.78458"
       y2="109.91143" />
    <linearGradient
       inkscape:collect="always"
       xlink:href="#linearGradient13263"
       id="linearGradient3949"
       gradientUnits="userSpaceOnUse"
       gradientTransform="matrix(1.234087,0,0,1.369206,-280.09067,-109.84092)"
       x1="302.36649"
       y1="85.341019"
       x2="273.78458"
       y2="109.91143" />
    <linearGradient
       inkscape:collect="always"
       xlink:href="#linearGradient13263"
       id="linearGradient3967"
       gradientUnits="userSpaceOnUse"
       gradientTransform="matrix(1.234087,0,0,1.369206,-280.09067,-109.84092)"
       x1="302.36649"
       y1="85.341019"
       x2="273.78458"
       y2="109.91143" />
    <linearGradient
       inkscape:collect="always"
       xlink:href="#linearGradient13263"
       id="linearGradient3975"
       gradientUnits="userSpaceOnUse"
       gradientTransform="matrix(1.234087,0,0,1.369206,-280.09067,-109.84092)"
       x1="302.36649"
       y1="85.341019"
       x2="273.78458"
       y2="109.91143" />
    <linearGradient
       inkscape:collect="always"
       xlink:href="#linearGradient13263"
       id="linearGradient3981"
       gradientUnits="userSpaceOnUse"
       gradientTransform="matrix(1.234087,0,0,1.369206,-280.09067,-109.84092)"
       x1="302.36649"
       y1="85.341019"
       x2="273.78458"
       y2="109.91143" />
    <linearGradient
       inkscape:collect="always"
       xlink:href="#linearGradient13263"
       id="linearGradient3984"
       gradientUnits="userSpaceOnUse"
       gradientTransform="matrix(1.1823136,0,0,1.311764,-268.33186,-100.78716)"
       x1="302.36649"
       y1="85.341019"
       x2="273.78458"
       y2="109.91143" />
    <linearGradient
       inkscape:collect="always"
       xlink:href="#linearGradient4469"
       id="linearGradient4423"
       x1="5.4090347"
       y1="7.3448534"
       x2="44.838013"
       y2="40.386475"
       gradientUnits="userSpaceOnUse" />
  </defs>
  <rect
     width="100"
     height="100"
     x="-0.0098983888"
     y="0.0098999729"
     id="border"
     style="opacity:0.64285715;fill:none;stroke:none"
     inkscape:export-filename="C:\Users\tempadmin\Desktop\Forme SVG\png\square_after_1.png"
     inkscape:export-xdpi="90"
     inkscape:export-ydpi="90" />
  <rect
     style="fill:none;fill-rule:evenodd;stroke:#000000;stroke-width:0px;stroke-linecap:butt;stroke-linejoin:miter;stroke-opacity:1"
     id="externalBorder"
     width="99"
     height="99"
     x="0.2"
     y="0.2" />
  <g
     id="g4"
     transform="matrix(1.4874383,0,0,1.4874383,5.376851,5.376851)">
    <circle
       cx="5"
       cy="5"
       r="1"
       id="circle6" />
    <circle
       cx="55"
       cy="5"
       r="1"
       id="circle8" />
    <circle
       cx="5"
       cy="55"
       r="1"
       id="circle10" />
    <circle
       cx="11"
       cy="56"
       r="1"
       id="circle12" />
    <circle
       cx="15"
       cy="56"
       r="1"
       id="circle14" />
    <circle
       cx="19"
       cy="56"
       r="1"
       id="circle16" />
    <circle
       cx="23"
       cy="56"
       r="1"
       id="circle18" />
    <circle
       cx="38"
       cy="39"
       r="1"
       id="circle20" />
    <circle
       cx="34"
       cy="39"
       r="1"
       id="circle22" />
    <circle
       cx="36"
       cy="36"
       r="1"
       id="circle24" />
    <circle
       cx="30"
       cy="39"
       r="1"
       id="circle26" />
    <circle
       cx="26"
       cy="39"
       r="1"
       id="circle28" />
    <circle
       cx="32"
       cy="36"
       r="1"
       id="circle30" />
    <circle
       cx="28"
       cy="36"
       r="1"
       id="circle32" />
    <circle
       cx="22"
       cy="39"
       r="1"
       id="circle34" />
    <circle
       cx="24"
       cy="36"
       r="1"
       id="circle36" />
    <circle
       cx="38"
       cy="33"
       r="1"
       id="circle38" />
    <circle
       cx="34"
       cy="33"
       r="1"
       id="circle40" />
    <circle
       cx="36"
       cy="30"
       r="1"
       id="circle42" />
    <circle
       cx="30"
       cy="33"
       r="1"
       id="circle44" />
    <circle
       cx="26"
       cy="33"
       r="1"
       id="circle46" />
    <circle
       cx="32"
       cy="30"
       r="1"
       id="circle48" />
    <circle
       cx="28"
       cy="30"
       r="1"
       id="circle50" />
    <circle
       cx="22"
       cy="33"
       r="1"
       id="circle52" />
    <circle
       cx="24"
       cy="30"
       r="1"
       id="circle54" />
    <circle
       cx="38"
       cy="27"
       r="1"
       id="circle56" />
    <circle
       cx="34"
       cy="27"
       r="1"
       id="circle58" />
    <circle
       cx="36"
       cy="24"
       r="1"
       id="circle60" />
    <circle
       cx="30"
       cy="27"
       r="1"
       id="circle62" />
    <circle
       cx="26"
       cy="27"
       r="1"
       id="circle64" />
    <circle
       cx="32"
       cy="24"
       r="1"
       id="circle66" />
    <circle
       cx="28"
       cy="24"
       r="1"
       id="circle68" />
    <circle
       cx="22"
       cy="27"
       r="1"
       id="circle70" />
    <circle
       cx="24"
       cy="24"
       r="1"
       id="circle72" />
    <circle
       cx="38"
       cy="21"
       r="1"
       id="circle74" />
    <circle
       cx="34"
       cy="21"
       r="1"
       id="circle76" />
    <circle
       cx="30"
       cy="21"
       r="1"
       id="circle78" />
    <circle
       cx="26"
       cy="21"
       r="1"
       id="circle80" />
    <circle
       cx="22"
       cy="21"
       r="1"
       id="circle82" />
    <circle
       cx="55"
       cy="55"
       r="1"
       id="circle84" />
    <path
       inkscape:connector-curvature="0"
       d="m 51,25 c 0.55,0 1,-0.45 1,-1 0,-0.55 -0.45,-1 -1,-1 l -2,0 0,-2 -4,0 0,-1.64 C 45,16.96 43.05,15 40.64,15 L 39,15 39,11 37,11 37,9 C 37,8.45 36.55,8 36,8 35.45,8 35,8.45 35,9 l 0,2 -2,0 0,-2 C 33,8.45 32.55,8 32,8 31.45,8 31,8.45 31,9 l 0,2 -2,0 0,-2 C 29,8.45 28.55,8 28,8 27.45,8 27,8.45 27,9 l 0,2 -2,0 0,-2 C 25,8.45 24.55,8 24,8 23.45,8 23,8.45 23,9 l 0,2 -2,0 0,4 -1.64,0 C 16.96,15 15,16.96 15,19.36 l 0,1.64 -4,0 0,2 -2,0 c -0.55,0 -1,0.45 -1,1 0,0.55 0.45,1 1,1 l 2,0 0,2 -2,0 c -0.55,0 -1,0.45 -1,1 0,0.55 0.45,1 1,1 l 2,0 0,2 -2,0 c -0.55,0 -1,0.45 -1,1 0,0.55 0.45,1 1,1 l 2,0 0,2 -2,0 c -0.55,0 -1,0.45 -1,1 0,0.55 0.45,1 1,1 l 2,0 0,2 4,0 0,1.64 c 0,2.4 1.95,4.36 4.36,4.36 l 1.64,0 0,4 2,0 0,2 c 0,0.55 0.45,1 1,1 0.55,0 1,-0.45 1,-1 l 0,-2 2,0 0,2 c 0,0.55 0.45,1 1,1 0.55,0 1,-0.45 1,-1 l 0,-2 2,0 0,2 c 0,0.55 0.45,1 1,1 0.55,0 1,-0.45 1,-1 l 0,-2 2,0 0,2 c 0,0.55 0.45,1 1,1 0.55,0 1,-0.45 1,-1 l 0,-2 2,0 0,-4 1.64,0 C 43.04,45 45,43.04 45,40.64 l 0,-1.64 4,0 0,-2 2,0 c 0.55,0 1,-0.45 1,-1 0,-0.55 -0.45,-1 -1,-1 l -2,0 0,-2 2,0 c 0.55,0 1,-0.45 1,-1 0,-0.55 -0.45,-1 -1,-1 l -2,0 0,-2 2,0 c 0.55,0 1,-0.45 1,-1 0,-0.55 -0.45,-1 -1,-1 l -2,0 0,-2 2,0 z m -28,-12 14,0 0,2 -14,0 0,-2 z m -10,24 0,-14 2,0 0,14 -2,0 z m 24,10 -14,0 0,-2 14,0 0,2 z m 6,-6.36 C 43,41.94 41.94,43 40.64,43 L 39,43 21,43 19.36,43 C 18.06,43 17,41.94 17,40.64 L 17,39 17,21 17,19.36 C 17,18.06 18.06,17 19.36,17 l 1.64,0 18,0 1.64,0 c 1.3,0 2.36,1.06 2.36,2.36 l 0,1.64 0,18 0,1.64 z m 4,-3.64 -2,0 0,-14 2,0 0,14 z"
       id="path86" />
    <circle
       cx="4"
       cy="37"
       r="1"
       id="circle88" />
    <circle
       cx="4"
       cy="41"
       r="1"
       id="circle90" />
    <circle
       cx="4"
       cy="45"
       r="1"
       id="circle92" />
    <circle
       cx="4"
       cy="49"
       r="1"
       id="circle94" />
    <path
       inkscape:connector-curvature="0"
       d="M 54.5,0 46,0 46,1 C 46,2.65 44.65,4 43,4 41.35,4 40,2.65 40,1 L 40,0 5.5,0 C 2.47,0 0,2.47 0,5.5 l 0,6.5 4,0 0,2 -4,0 0,40.5 C 0,57.53 2.47,60 5.5,60 l 34.5,0 0,-1 c 0,-1.65 1.35,-3 3,-3 1.65,0 3,1.35 3,3 l 0,1 8.5,0 c 3.03,0 5.5,-2.47 5.5,-5.5 l 0,-49 C 60,2.47 57.53,0 54.5,0 Z m 0,58 -6.6,0 c -0.46,-2.28 -2.48,-4 -4.9,-4 -2.42,0 -4.44,1.72 -4.9,4 L 5.5,58 C 3.57,58 2,56.43 2,54.5 L 2,16 6,16 6,10 2,10 2,5.5 C 2,3.57 3.57,2 5.5,2 l 32.6,0 c 0.46,2.28 2.48,4 4.9,4 2.42,0 4.44,-1.72 4.9,-4 l 6.6,0 C 56.43,2 58,3.57 58,5.5 l 0,11.5 -2,0 c -0.55,0 -1,0.45 -1,1 0,0.55 0.45,1 1,1 l 2,0 0,1 -2,0 c -0.55,0 -1,0.45 -1,1 0,0.55 0.45,1 1,1 l 2,0 0,1 -2,0 c -0.55,0 -1,0.45 -1,1 0,0.55 0.45,1 1,1 l 2,0 0,1 -2,0 c -0.55,0 -1,0.45 -1,1 0,0.55 0.45,1 1,1 l 2,0 0,1 -2,0 c -0.55,0 -1,0.45 -1,1 0,0.55 0.45,1 1,1 l 2,0 0,1 -2,0 c -0.55,0 -1,0.45 -1,1 0,0.55 0.45,1 1,1 l 2,0 0,1 -2,0 c -0.55,0 -1,0.45 -1,1 0,0.55 0.45,1 1,1 l 2,0 0,1 -2,0 c -0.55,0 -1,0.45 -1,1 0,0.55 0.45,1 1,1 l 2,0 0,1 -2,0 c -0.55,0 -1,0.45 -1,1 0,0.55 0.45,1 1,1 l 2,0 0,11.5 c 0,1.93 -1.57,3.5 -3.5,3.5 z"
       id="path96" />
  </g>
  <path
     style="color:#000000;clip-rule:nonzero;display:inline;overflow:visible;visibility:visible;opacity:1;isolation:auto;mix-blend-mode:normal;color-interpolation:sRGB;color-interpolation-filters:linearRGB;solid-color:#000000;solid-opacity:1;fill:url(#linearGradient4423);fill-opacity:1.0;fill-rule:nonzero;stroke:#000000;stroke-width:0.23395526;stroke-linecap:butt;stroke-linejoin:miter;stroke-miterlimit:4;stroke-dasharray:none;stroke-dashoffset:0;stroke-opacity:1;color-rendering:auto;image-rendering:auto;shape-rendering:auto;text-rendering:auto;enable-background:accumulate"
     d="M 12.092139,91.268665 C 10.908438,90.914445 9.4138512,89.499944 8.8630248,88.212581 8.504466,87.374573 8.4283167,82.134202 8.4283167,58.297249 l 0,-28.899354 2.9994263,0 2.999427,0 0,-4.578072 0,-4.578072 -2.999427,0 -2.9994263,0 0,-3.721849 c 0,-3.23728 0.09249,-3.902857 0.7103904,-5.112115 C 9.5294219,10.643142 10.250174,9.7250489 10.740379,9.3675809 11.620078,8.7260857 11.959277,8.7165415 36.840664,8.6331888 l 25.209002,-0.08445 0.21695,0.9877692 c 0.119324,0.543273 0.877067,1.669644 1.683878,2.503048 3.684256,3.805696 9.786384,2.889405 12.04385,-1.808497 l 0.789323,-1.6426193 5.557501,-0.014333 c 5.255987,-0.013555 5.614128,0.024209 6.60128,0.696058 0.574078,0.3907147 1.340999,1.1112443 1.704268,1.6011773 0.630261,0.850019 0.664711,1.323243 0.752704,10.340128 l 0.09221,9.449341 -1.844511,0 c -1.968312,0 -2.602262,0.349586 -2.602262,1.434993 0,1.119467 0.975667,1.722298 2.787491,1.722298 1.42223,0 1.632717,0.08141 1.632717,0.631459 0,0.560882 -0.210487,0.631458 -1.883267,0.631458 -1.538795,0 -1.943048,0.111704 -2.210104,0.610702 -0.861562,1.609845 0.01369,2.546589 2.379413,2.546589 1.503471,0 1.713958,0.07755 1.713958,0.631458 0,0.553911 -0.210487,0.631458 -1.713958,0.631458 -1.826792,0 -2.70625,0.513016 -2.70625,1.578646 0,1.06563 0.879458,1.578645 2.70625,1.578645 1.503471,0 1.713958,0.07755 1.713958,0.631458 0,0.553912 -0.210487,0.631459 -1.713958,0.631459 -2.365726,0 -3.240975,0.936743 -2.379413,2.546588 0.267056,0.498998 0.671309,0.610703 2.210104,0.610703 1.67278,0 1.883267,0.07057 1.883267,0.631458 0,0.552699 -0.210487,0.631458 -1.687575,0.631458 -1.819058,0 -2.732633,0.594142 -2.732633,1.777157 0,1.027733 0.661065,1.380134 2.588979,1.380134 1.620742,0 1.831229,0.07258 1.831229,0.631458 0,0.5527 -0.210487,0.631458 -1.687575,0.631458 -1.906865,0 -2.858141,0.688625 -2.679072,1.939366 0.132799,0.927556 1.310866,1.523056 3.024798,1.529001 0.9802,0.0034 1.341849,0.132293 1.341849,0.478247 0,0.354886 -0.378086,0.473594 -1.508393,0.473594 -1.781185,0 -2.911815,0.674271 -2.911815,1.73651 0,1.062239 1.13063,1.73651 2.911815,1.73651 1.130307,0 1.508393,0.118708 1.508393,0.473594 0,0.345953 -0.361649,0.474847 -1.341849,0.478247 -1.713932,0.0059 -2.891999,0.601445 -3.024798,1.529 -0.179069,1.250742 0.772207,1.939366 2.679072,1.939366 1.477088,0 1.687575,0.07876 1.687575,0.631459 0,0.558875 -0.210487,0.631458 -1.831229,0.631458 -1.955591,0 -2.588979,0.351068 -2.588979,1.434992 0,1.122597 0.975228,1.722299 2.800773,1.722299 l 1.646,0 -0.09221,9.39294 c -0.09089,9.258103 -0.10277,9.407739 -0.827497,10.423825 -1.360736,1.907787 -2.128078,2.114312 -8.284542,2.229742 l -5.546805,0.103998 -0.370461,-1.23648 c -0.414697,-1.384144 -2.102544,-3.282768 -3.612443,-4.063566 -0.548424,-0.283604 -1.886667,-0.587045 -2.973868,-0.674316 -1.705695,-0.136916 -2.219465,-0.03991 -3.747073,0.707477 -1.882452,0.920997 -3.525402,2.782075 -3.839417,4.349162 L 62.023331,91.596528 37.51486,91.569375 C 24.035201,91.554441 12.594976,91.419123 12.092139,91.268649 l 0,1.6e-5 z m 10.564743,-1.26189 c 0.692148,-0.370426 0.832177,-1.85123 0.231827,-2.45158 -0.208381,-0.208381 -0.748278,-0.378875 -1.19977,-0.378875 -1.516219,0 -2.1001,1.426316 -1.056118,2.579905 0.592875,0.655119 1.141273,0.723004 2.024061,0.25055 z m 6.113409,-0.16931 c 0.58885,-0.58885 0.648564,-1.750977 0.117271,-2.28227 -0.208381,-0.208381 -0.748278,-0.378875 -1.19977,-0.378875 -0.451493,0 -0.99139,0.170494 -1.199771,0.378875 -0.892904,0.892904 -0.0787,2.778416 1.199771,2.778416 0.322495,0 0.809619,-0.223264 1.082499,-0.496146 z m 5.917612,-0.02639 c 1.14646,-1.037517 0.539483,-2.63475 -1.001258,-2.63475 -1.056901,0 -1.578646,0.537431 -1.578646,1.626103 0,1.393088 1.504954,1.981478 2.579904,1.00866 l 0,-1.3e-5 z M 40.7992,89.69258 c 0.831438,-0.918727 0.318012,-2.319365 -0.90181,-2.460155 -1.141958,-0.131791 -1.790538,0.428031 -1.790538,1.54551 0,1.492856 1.659027,2.056467 2.692348,0.914658 l 0,-1.3e-5 z M 14.127179,88.094088 c 0.797081,-1.489361 -0.802446,-3.14607 -2.195778,-2.274276 -0.632533,0.39577 -0.82974,1.878427 -0.329948,2.48064 0.578226,0.696719 2.109362,0.571618 2.525726,-0.206364 z m 74.367499,-0.128445 c 0.479946,-0.732495 0.479049,-0.847524 -0.0125,-1.597709 -0.698607,-1.066211 -2.017588,-0.950897 -2.679808,0.234283 -0.431743,0.7727 -0.421441,0.90374 0.117906,1.499714 0.807541,0.892323 1.939695,0.832385 2.574395,-0.136288 l 1e-5,0 z M 42.351293,82.054402 c 0.278337,-0.397383 0.491496,-1.355886 0.491496,-2.210104 l 0,-1.508392 1.262916,0 1.262916,0 0,1.599401 c 0,2.059387 0.412077,2.820806 1.526607,2.820806 1.285305,0 1.630684,-0.548349 1.630684,-2.588979 l 0,-1.831228 1.420781,0 1.420781,0 0,1.831228 c 0,2.019865 0.347021,2.588979 1.578646,2.588979 1.231624,0 1.578645,-0.569114 1.578645,-2.588979 l 0,-1.831228 1.420781,0 1.420781,0 0,1.831228 c 0,2.019865 0.347021,2.588979 1.578646,2.588979 1.231624,0 1.578645,-0.569114 1.578645,-2.588979 l 0,-1.831228 1.578646,0 1.578645,0 0,-2.999427 0,-2.999426 1.906953,0 c 4.189716,0 6.926484,-2.898248 6.9317,-7.340702 l 0.0018,-1.499713 2.999426,0 2.999427,0 0,-1.420781 0,-1.420781 1.578645,0 c 2.448356,0 3.587305,-1.464361 2.210104,-2.841562 -0.46307,-0.46307 -1.052429,-0.631458 -2.210104,-0.631458 l -1.578645,0 0,-1.262917 0,-1.262916 1.578645,0 c 1.157675,0 1.747034,-0.168388 2.210104,-0.631458 1.35186,-1.351861 0.473429,-2.566303 -2.004924,-2.771827 l -1.783825,-0.147929 0,-1.223819 0,-1.22382 1.718608,0 c 1.418044,0 1.804562,-0.122721 2.210104,-0.701711 1.066558,-1.522723 0.22519,-2.45558 -2.214755,-2.45558 l -1.713957,0 0,-1.420781 0,-1.420781 1.632717,0 c 2.423533,0 3.495121,-1.220593 2.264962,-2.579904 -0.380776,-0.420753 -0.975641,-0.577387 -2.192805,-0.577387 l -1.670277,0 -0.09623,-1.499713 -0.09623,-1.499713 -2.878174,-0.09022 -2.878173,-0.09022 -0.158238,-1.971305 C 72.100962,30.03008 69.435312,27.50352 65.224288,27.50352 l -1.519683,0 -0.09078,-2.920494 -0.09078,-2.920494 -1.499714,-0.09623 -1.499713,-0.09623 0,-1.615418 c 0,-1.729927 -0.60272,-2.770191 -1.605028,-2.770191 -1.039617,0 -1.552263,0.89376 -1.552263,2.70625 l 0,1.713958 -1.420781,0 -1.420781,0 0,-1.713958 c 0,-2.440952 -1.186207,-3.445 -2.579904,-2.183722 -0.422174,0.382062 -0.577387,0.976181 -0.577387,2.210104 l 0,1.687576 -1.405714,0 -1.405718,0 -0.09399,-1.966956 c -0.08696,-1.819779 -0.15825,-1.989457 -0.952694,-2.26769 -1.370125,-0.47985 -2.140732,0.437028 -2.140732,2.54707 l 0,1.687576 -1.262916,0 c -1.259434,0 -1.262916,-0.0034 -1.262916,-1.242363 0,-1.814512 -0.476698,-2.811242 -1.462884,-3.058759 -1.234226,-0.309772 -2.010137,0.754602 -2.010137,2.757454 l 0,1.543668 -1.420781,0 -1.42078,0 0,2.957002 0,2.957003 -2.165344,0.15493 c -2.628264,0.188051 -4.408033,1.094733 -5.640823,2.873649 -0.712346,1.027916 -0.889917,1.671756 -0.986036,3.575185 l -0.117231,2.321498 -2.964917,0 -2.964917,0 0,1.578646 0,1.578645 -1.831229,0 c -2.019866,0 -2.588979,0.347021 -2.588979,1.578646 0,1.231624 0.569113,1.578645 2.588979,1.578645 l 1.831229,0 0,1.420781 0,1.420781 -1.831229,0 c -2.019866,0 -2.588979,0.347021 -2.588979,1.578646 0,1.231624 0.569113,1.578645 2.588979,1.578645 l 1.831229,0 0,1.22382 0,1.223819 -1.717371,0.14242 c -2.025822,0.167996 -2.702837,0.633317 -2.702837,1.857699 0,1.141083 0.745643,1.551095 2.820806,1.551095 l 1.599402,0 0,1.262916 0,1.262917 -1.599402,0 c -2.181327,0 -2.820806,0.393667 -2.820806,1.73651 0,1.342843 0.639479,1.73651 2.820806,1.73651 l 1.599402,0 0,1.420781 0,1.420781 2.999426,0 2.999427,0 0,2.064818 c 0,4.285413 2.549099,6.775597 6.935899,6.775597 l 1.904516,0 0,2.999426 0,2.999427 1.42078,0 1.420781,0 0,1.599401 c 0,0.879672 0.147077,1.874218 0.326837,2.210104 0.462013,0.863276 2.023782,0.809734 2.654688,-0.09101 z M 12.237822,79.587715 c 0.692148,-0.370426 0.832176,-1.851231 0.231827,-2.45158 -0.208381,-0.208381 -0.748278,-0.378875 -1.19977,-0.378875 -1.516219,0 -2.1001006,1.426316 -1.056118,2.579905 0.592874,0.655119 1.141273,0.723003 2.024061,0.25055 z m 0.231827,-6.050892 c 0.488407,-0.488407 0.488407,-1.911133 0,-2.399541 -0.984698,-0.984699 -2.7784159,-0.13618 -2.7784159,1.314327 0,1.177328 1.9317749,1.931854 2.7784159,1.085214 z m 0.0473,-6.074479 c 0.499793,-0.602213 0.302585,-2.08487 -0.329948,-2.48064 -1.393331,-0.871794 -2.9928587,0.784916 -2.1957771,2.274276 0.4163631,0.777982 1.9475001,0.903083 2.5257251,0.206364 z m -0.0473,-5.923227 c 0.701229,-0.701228 0.456558,-2.1251 -0.434967,-2.531307 -1.416983,-0.645619 -2.7419602,0.679357 -2.0963397,2.09634 0.4062057,0.891524 1.8300777,1.136195 2.5313067,0.434967 z m 1.273836,-47.484612 c 0.972542,-0.681195 0.811835,-1.999847 -0.320859,-2.632738 -0.772699,-0.431745 -0.903738,-0.421442 -1.499713,0.117908 -0.853378,0.772296 -0.831448,1.910993 0.04868,2.527456 0.866079,0.606625 0.888016,0.606469 1.771897,-0.01263 z m 74.564294,-0.127336 c 0.347302,-0.347302 0.631458,-0.844575 0.631458,-1.105052 0,-0.611967 -1.124542,-1.73651 -1.73651,-1.73651 -0.611968,0 -1.73651,1.124543 -1.73651,1.73651 0,0.611968 1.124542,1.73651 1.73651,1.73651 0.260477,0 0.75775,-0.284156 1.105052,-0.631458 z"
     id="path4415"
     inkscape:connector-curvature="0" />
</svg>
