<?xml version="1.0" encoding="UTF-8" standalone="no"?>
<!-- Created with Inkscape (http://www.inkscape.org/) -->

<svg
   xmlns:dc="http://purl.org/dc/elements/1.1/"
   xmlns:cc="http://creativecommons.org/ns#"
   xmlns:rdf="http://www.w3.org/1999/02/22-rdf-syntax-ns#"
   xmlns:svg="http://www.w3.org/2000/svg"
   xmlns="http://www.w3.org/2000/svg"
   xmlns:sodipodi="http://sodipodi.sourceforge.net/DTD/sodipodi-0.dtd"
   xmlns:inkscape="http://www.inkscape.org/namespaces/inkscape"
   id="svg2985"
   version="1.1"
   inkscape:version="0.48.4 r9939"
   width="59.145992"
   height="59.586285"
   sodipodi:docname="fan.svg">
  <metadata
     id="metadata2991">
    <rdf:RDF>
      <cc:Work
         rdf:about="">
        <dc:format>image/svg+xml</dc:format>
        <dc:type
           rdf:resource="http://purl.org/dc/dcmitype/StillImage" />
        <dc:title />
      </cc:Work>
    </rdf:RDF>
  </metadata>
  <defs
     id="defs2989" />
  <sodipodi:namedview
     pagecolor="#ffffff"
     bordercolor="#666666"
     borderopacity="1"
     objecttolerance="10"
     gridtolerance="10"
     guidetolerance="10"
     inkscape:pageopacity="0"
     inkscape:pageshadow="2"
     inkscape:window-width="1680"
     inkscape:window-height="988"
     id="namedview2987"
     showgrid="false"
     fit-margin-top="0"
     fit-margin-left="0"
     fit-margin-right="0"
     fit-margin-bottom="0"
     inkscape:zoom="7.375"
     inkscape:cx="38.591798"
     inkscape:cy="40.2852"
     inkscape:window-x="-8"
     inkscape:window-y="-8"
     inkscape:window-maximized="1"
     inkscape:current-layer="svg2985" />
  <g
     id="g3861"
     transform="matrix(1.1178342,0,0,1.1178342,93.85673,31.888849)" />
  <g
     id="g3798"
     transform="matrix(0.98166731,0,0,0.98166731,0.55232393,0.55676959)">
    <path
       sodipodi:type="arc"
       style="fill:none;stroke:#261e58;stroke-width:2;stroke-miterlimit:4;stroke-opacity:1;stroke-dasharray:none"
       id="path2995"
       sodipodi:cx="-65.084747"
       sodipodi:cy="-5.2881355"
       sodipodi:rx="17.898306"
       sodipodi:ry="18.033897"
       d="m -47.186441,-5.2881355 c 0,9.9598465 -8.013345,18.0338975 -17.898306,18.0338975 -9.884962,0 -17.898306,-8.074051 -17.898306,-18.0338975 0,-9.9598465 8.013344,-18.0338975 17.898306,-18.0338975 9.884961,0 17.898306,8.074051 17.898306,18.0338975 z"
       transform="matrix(1.5654853,0,0,1.5654853,131.45185,38.060862)" />
    <path
       d="m -47.186441,-5.2881355 c 0,9.9598465 -8.013345,18.0338975 -17.898306,18.0338975 -9.884962,0 -17.898306,-8.074051 -17.898306,-18.0338975 0,-9.9598465 8.013344,-18.0338975 17.898306,-18.0338975 9.884961,0 17.898306,8.074051 17.898306,18.0338975 z"
       sodipodi:ry="18.033897"
       sodipodi:rx="17.898306"
       sodipodi:cy="-5.2881355"
       sodipodi:cx="-65.084747"
       id="path3767"
       style="fill:#ffffff;fill-opacity:1;stroke:#000000;stroke-width:7.35179043;stroke-miterlimit:4;stroke-opacity:1;stroke-dasharray:none"
       sodipodi:type="arc"
       transform="matrix(0.4865576,0,0,0.4865576,61.230107,32.355346)" />
    <path
       transform="matrix(0.28331503,0,0,0.28331503,48.002117,31.280572)"
       sodipodi:type="arc"
       style="fill:#261e58;fill-opacity:1;stroke:none"
       id="path3859"
       sodipodi:cx="-65.084747"
       sodipodi:cy="-5.2881355"
       sodipodi:rx="17.898306"
       sodipodi:ry="18.033897"
       d="m -47.186441,-5.2881355 c 0,9.9598465 -8.013345,18.0338975 -17.898306,18.0338975 -9.884962,0 -17.898306,-8.074051 -17.898306,-18.0338975 0,-9.9598465 8.013344,-18.0338975 17.898306,-18.0338975 9.884961,0 17.898306,8.074051 17.898306,18.0338975 z" />
    <path
       inkscape:connector-curvature="0"
       id="path3021"
       d="M 27.7193,54.329359 C 26.824385,54.19539 25.697311,54.015374 25.214691,53.929326 L 24.3372,53.772874 25.815959,51.831946 c 2.620202,-3.439119 4.003005,-6.554761 4.350873,-9.803105 0.188205,-1.757429 0.179487,-1.79222 -0.449837,-1.795148 -0.352969,-0.0016 -1.068881,-0.07308 -1.590915,-0.158753 -0.9339,-0.153264 -0.956785,-0.134094 -1.424106,1.192987 -1.416906,4.023675 -5.395625,7.519319 -9.685498,8.50954 -1.215388,0.280546 -1.404491,0.2503 -2.519119,-0.402915 -1.33881,-0.784594 -3.46791,-2.98003 -5.4600682,-5.630186 L 7.7259141,41.999851 10.129387,41.661297 c 2.700499,-0.380394 5.657667,-1.206051 7.275286,-2.031298 1.167022,-0.595371 3.801394,-2.472255 4.062098,-2.894083 0.08789,-0.142204 -0.138475,-0.698082 -0.503027,-1.235281 -0.364553,-0.537199 -0.702163,-1.081709 -0.750244,-1.21002 -0.04808,-0.128312 -0.88064,-0.06582 -1.850132,0.138869 -2.275298,0.480385 -4.06063,0.473044 -6.174686,-0.02539 C 9.7092459,33.81952 7.939359,32.818666 5.9465042,30.874211 L 4.1822095,29.152763 4.3333632,27.688225 c 0.1579172,-1.530071 1.3215239,-5.26939 2.4105702,-7.746509 l 0.636384,-1.447505 1.7437988,2.214061 c 2.7044728,3.433807 5.3338358,5.469886 8.3957938,6.501385 0.901949,0.303845 1.694967,0.552445 1.762262,0.552445 0.06729,0 0.330668,-0.627177 0.585275,-1.393727 0.435791,-1.312044 0.435877,-1.408861 0.0015,-1.651968 -1.217054,-0.6811 -3.323857,-2.66332 -4.256872,-4.005152 -1.5414,-2.216791 -2.172677,-4.091053 -2.331465,-6.922118 -0.131403,-2.342828 -0.106797,-2.483765 0.575148,-3.294209 0.964717,-1.146502 2.866669,-2.329217 5.757378,-3.580182 3.796685,-1.643031 3.611674,-1.636898 3.300372,-0.10941 -0.464485,2.279124 -0.368149,7.607302 0.170314,9.41976 0.760601,2.560172 1.731743,4.296587 2.278767,4.074464 0.252143,-0.102385 0.800607,-0.309934 1.218807,-0.461222 0.677535,-0.245103 0.740183,-0.366957 0.575097,-1.118589 -0.3546,-1.614484 -0.159282,-5.146577 0.372832,-6.742211 0.710686,-2.131115 2.116944,-4.373555 3.636021,-5.798055 1.500176,-1.406776 2.24403,-1.502236 5.237407,-0.672121 2.158747,0.598658 6.638617,2.419301 6.638617,2.697969 0,0.102077 -0.388523,0.415101 -0.863387,0.69561 -1.380824,0.815673 -4.999975,4.412952 -6.086199,6.049419 -0.857136,1.29133 -2.475517,5.169908 -2.221573,5.324178 0.04753,0.02887 0.604835,0.384599 1.238462,0.790501 l 1.152052,0.738005 1.505101,-1.225923 c 2.73088,-2.224331 5.664,-3.381992 8.58423,-3.388071 1.799303,-0.0037 4.091122,0.437067 5.189725,0.998202 1.366126,0.69778 2.560298,4.271484 3.055997,9.145434 0.158392,1.557398 0.126102,1.847704 -0.190296,1.710865 -4.606992,-1.992468 -8.054796,-2.785704 -11.081015,-2.549409 -1.125193,0.08786 -2.417171,0.290195 -2.871061,0.449636 -0.795252,0.279355 -0.819897,0.336451 -0.677967,1.570724 l 0.147287,1.280832 2.109478,0.320853 c 3.662045,0.557001 5.865912,1.555879 8.024995,3.63724 1.569066,1.512583 3.289256,4.208385 3.289256,5.154769 0,0.416309 -0.465068,1.65565 -1.033489,2.75409 -1.235872,2.388266 -4.361852,6.579859 -4.668005,6.259285 -0.119374,-0.124996 -0.535878,-1.018517 -0.925565,-1.985603 -1.646997,-4.087352 -4.557285,-7.747146 -7.383197,-9.284635 l -1.356239,-0.73789 -0.88039,0.908331 -0.880388,0.908331 0.675311,1.332667 c 1.245047,2.456979 1.616857,4.269581 1.475967,7.195436 -0.119964,2.491308 -0.206993,2.822739 -1.321974,5.034535 -0.885882,1.757326 -1.403276,2.468792 -2.007116,2.759965 -0.977139,0.471181 -5.005775,0.623395 -7.322034,0.276651 z m 4.745763,-18.072014 c 3.382867,-1.379793 5.050373,-5.97157 3.429736,-9.444396 -1.721126,-3.688161 -6.109934,-5.164074 -9.641062,-3.242193 -2.397823,1.305059 -3.639806,3.442799 -3.627528,6.243816 0.02262,5.161499 4.995859,8.41812 9.838854,6.442773 z"
       style="fill:#261e58;fill-opacity:1;stroke:none" />
  </g>
</svg>
