<?xml version="1.0" encoding="UTF-8" standalone="no"?>
<!-- Created with Inkscape (http://www.inkscape.org/) -->

<svg
   xmlns:dc="http://purl.org/dc/elements/1.1/"
   xmlns:cc="http://creativecommons.org/ns#"
   xmlns:rdf="http://www.w3.org/1999/02/22-rdf-syntax-ns#"
   xmlns:svg="http://www.w3.org/2000/svg"
   xmlns="http://www.w3.org/2000/svg"
   xmlns:xlink="http://www.w3.org/1999/xlink"
   xmlns:sodipodi="http://sodipodi.sourceforge.net/DTD/sodipodi-0.dtd"
   xmlns:inkscape="http://www.inkscape.org/namespaces/inkscape"
   version="1.1"
   width="100"
   height="100"
   id="svg5020"
   viewBox="0 0 100 100"
   preserveAspectRatio="none"
   inkscape:version="0.91 r13725"
   sodipodi:docname="radar.svg">
  <metadata
     id="metadata19">
    <rdf:RDF>
      <cc:Work
         rdf:about="">
        <dc:format>image/svg+xml</dc:format>
        <dc:type
           rdf:resource="http://purl.org/dc/dcmitype/StillImage" />
        <dc:title />
      </cc:Work>
    </rdf:RDF>
  </metadata>
  <sodipodi:namedview
     pagecolor="#ffffff"
     bordercolor="#666666"
     borderopacity="1"
     objecttolerance="10"
     gridtolerance="10"
     guidetolerance="10"
     inkscape:pageopacity="0"
     inkscape:pageshadow="2"
     inkscape:window-width="1920"
     inkscape:window-height="1051"
     id="namedview17"
     showgrid="false"
     inkscape:zoom="4.4791993"
     inkscape:cx="39.776594"
     inkscape:cy="17.551175"
     inkscape:window-x="1920"
     inkscape:window-y="0"
     inkscape:window-maximized="1"
     inkscape:current-layer="svg5020"
     showguides="true"
     inkscape:guide-bbox="true">
    <sodipodi:guide
       orientation="0,1"
       position="106.26899,0.44650838"
       id="guide3932" />
    <sodipodi:guide
       orientation="1,0"
       position="0.22325419,68.539036"
       id="guide3946" />
  </sodipodi:namedview>
  <defs
     id="defs5022">
    <filter
       x="-0.26370296"
       y="-0.29216129"
       width="1.5274059"
       height="1.5843226"
       color-interpolation-filters="sRGB"
       id="filter20257">
      <feGaussianBlur
         stdDeviation="8.4844688"
         id="feGaussianBlur20259" />
    </filter>
    <linearGradient
       x1="302.36649"
       y1="85.341019"
       x2="273.78458"
       y2="109.91143"
       id="linearGradient20265"
       xlink:href="#linearGradient13263"
       gradientUnits="userSpaceOnUse"
       gradientTransform="translate(7.0201173,-1.0028739)" />
    <linearGradient
       id="linearGradient13263">
      <stop
         id="stop1"
         style="stop-color:#a9c3e4;stop-opacity:1"
         offset="0" />
      <stop
         id="stop2"
         style="stop-color:#3465a4;stop-opacity:1"
         offset="1" />
    </linearGradient>
    <linearGradient
       inkscape:collect="always"
       xlink:href="#linearGradient13263"
       id="linearGradient3895"
       gradientUnits="userSpaceOnUse"
       gradientTransform="translate(7.0201173,-1.0028739)"
       x1="302.36649"
       y1="85.341019"
       x2="273.78458"
       y2="109.91143" />
    <linearGradient
       inkscape:collect="always"
       xlink:href="#linearGradient13263"
       id="linearGradient3903"
       gradientUnits="userSpaceOnUse"
       gradientTransform="translate(7.0201173,-1.0028739)"
       x1="302.36649"
       y1="85.341019"
       x2="273.78458"
       y2="109.91143" />
    <linearGradient
       inkscape:collect="always"
       xlink:href="#linearGradient13263"
       id="linearGradient3910"
       gradientUnits="userSpaceOnUse"
       gradientTransform="translate(7.0201173,-1.0028739)"
       x1="302.36649"
       y1="85.341019"
       x2="273.78458"
       y2="109.91143" />
    <linearGradient
       inkscape:collect="always"
       xlink:href="#linearGradient13263"
       id="linearGradient3913"
       gradientUnits="userSpaceOnUse"
       gradientTransform="matrix(1.0353074,0,0,1.1486622,-226.39584,-83.999193)"
       x1="302.36649"
       y1="85.341019"
       x2="273.78458"
       y2="109.91143" />
    <linearGradient
       inkscape:collect="always"
       xlink:href="#linearGradient13263"
       id="linearGradient3930"
       gradientUnits="userSpaceOnUse"
       gradientTransform="matrix(1.0353074,0,0,1.1486622,-226.39584,-83.999193)"
       x1="302.36649"
       y1="85.341019"
       x2="273.78458"
       y2="109.91143" />
    <linearGradient
       inkscape:collect="always"
       xlink:href="#linearGradient13263"
       id="linearGradient3937"
       gradientUnits="userSpaceOnUse"
       gradientTransform="matrix(1.2223334,0,0,1.3561655,-277.20531,-108.66092)"
       x1="302.36649"
       y1="85.341019"
       x2="273.78458"
       y2="109.91143" />
    <linearGradient
       inkscape:collect="always"
       xlink:href="#linearGradient13263"
       id="linearGradient3944"
       gradientUnits="userSpaceOnUse"
       gradientTransform="matrix(1.2223334,0,0,1.3561655,-277.20531,-108.66092)"
       x1="302.36649"
       y1="85.341019"
       x2="273.78458"
       y2="109.91143" />
    <linearGradient
       inkscape:collect="always"
       xlink:href="#linearGradient13263"
       id="linearGradient3949"
       gradientUnits="userSpaceOnUse"
       gradientTransform="matrix(1.234087,0,0,1.369206,-280.09067,-109.84092)"
       x1="302.36649"
       y1="85.341019"
       x2="273.78458"
       y2="109.91143" />
    <linearGradient
       inkscape:collect="always"
       xlink:href="#linearGradient13263"
       id="linearGradient3967"
       gradientUnits="userSpaceOnUse"
       gradientTransform="matrix(1.234087,0,0,1.369206,-280.09067,-109.84092)"
       x1="302.36649"
       y1="85.341019"
       x2="273.78458"
       y2="109.91143" />
    <linearGradient
       inkscape:collect="always"
       xlink:href="#linearGradient13263"
       id="linearGradient3975"
       gradientUnits="userSpaceOnUse"
       gradientTransform="matrix(1.234087,0,0,1.369206,-280.09067,-109.84092)"
       x1="302.36649"
       y1="85.341019"
       x2="273.78458"
       y2="109.91143" />
    <linearGradient
       inkscape:collect="always"
       xlink:href="#linearGradient13263"
       id="linearGradient3981"
       gradientUnits="userSpaceOnUse"
       gradientTransform="matrix(1.234087,0,0,1.369206,-280.09067,-109.84092)"
       x1="302.36649"
       y1="85.341019"
       x2="273.78458"
       y2="109.91143" />
    <linearGradient
       inkscape:collect="always"
       xlink:href="#linearGradient13263"
       id="linearGradient3984"
       gradientUnits="userSpaceOnUse"
       gradientTransform="matrix(1.1823136,0,0,1.311764,-268.33186,-100.78716)"
       x1="302.36649"
       y1="85.341019"
       x2="273.78458"
       y2="109.91143" />
  </defs>
  <rect
     width="100"
     height="100"
     x="-0.0098983888"
     y="0.0098999729"
     id="border"
     style="opacity:0.64285715;fill:none;stroke:none"
     inkscape:export-filename="C:\Users\tempadmin\Desktop\Forme SVG\png\square_after_1.png"
     inkscape:export-xdpi="90"
     inkscape:export-ydpi="90" />
  <rect
     style="fill:none;fill-rule:evenodd;stroke:#000000;stroke-width:0px;stroke-linecap:butt;stroke-linejoin:miter;stroke-opacity:1"
     id="externalBorder"
     width="99"
     height="99"
     x="0.2"
     y="0.2" />
  <path
     style="color:#000000;clip-rule:nonzero;display:inline;overflow:visible;visibility:visible;opacity:0.91799999;isolation:auto;mix-blend-mode:normal;color-interpolation:sRGB;color-interpolation-filters:linearRGB;solid-color:#000000;solid-opacity:1;fill:#000000;fill-opacity:1;fill-rule:nonzero;stroke:none;stroke-width:10.24300003;stroke-linecap:butt;stroke-linejoin:miter;stroke-miterlimit:4;stroke-dasharray:10.24300003, 20.48600006;stroke-dashoffset:0;stroke-opacity:1;color-rendering:auto;image-rendering:auto;shape-rendering:auto;text-rendering:auto;enable-background:accumulate"
     d="M 45.574688,95.059713 C 37.40767,94.272727 29.063232,90.989841 22.467226,85.968729 9.7385875,76.279243 3.0693902,60.184884 5.1377011,44.148464 7.0684513,29.178608 16.531141,16.004149 30.121678,9.3644424 45.978662,1.6174558 64.636066,3.73682 78.365973,14.844692 c 9.341687,7.557683 15.213902,18.263469 16.631941,30.322117 0.332026,2.82348 0.144716,9.61917 -0.339043,12.300612 -1.202047,6.662851 -3.523638,12.505387 -7.057533,17.761042 -9.305331,13.839012 -25.399587,21.433461 -42.02665,19.83125 z m 3.188715,-7.774179 0,-3.558386 -1.060457,-0.122431 C 38.423553,82.533407 32.232924,79.689368 26.310124,73.77663 20.362114,67.838727 17.049827,60.65078 16.465015,52.411899 l -0.140331,-1.976985 -3.538636,0 -3.5386363,0 0,0.993209 c 0,1.795986 0.662514,6.092638 1.3514263,8.764504 2.978128,11.550334 10.931315,21.223969 21.726368,26.426261 5.069944,2.443276 10.021673,3.737828 16.047502,4.195368 0.35699,0.02711 0.390695,-0.277315 0.390695,-3.528722 z m 6.809253,3.090157 c 2.563473,-0.322353 6.013974,-1.1802 8.534565,-2.121821 15.077128,-5.632393 25.431318,-19.517636 26.538172,-35.58839 l 0.153628,-2.230566 -19.789912,0 -19.78991,0 0,10.630583 0,10.630581 1.472011,-0.157638 c 3.894816,-0.417099 8.330906,-2.395111 11.384597,-5.076287 l 0.785819,-0.689958 0.880209,0.8595 0.880208,0.859499 -0.601868,0.628215 c -1.681124,1.754718 -5.623474,3.963892 -8.996367,5.041296 -1.633393,0.521754 -4.779939,1.162407 -5.709137,1.162407 -0.05251,0 -0.09547,1.567394 -0.09547,3.483098 l 0,3.483098 1.618593,-0.153358 c 6.256607,-0.592798 11.985343,-2.996062 17.201706,-7.216294 l 1.518097,-1.2282 0.878485,0.857819 c 0.844265,0.824402 0.8634,0.87467 0.491191,1.290427 -0.734105,0.819995 -3.964021,3.215088 -5.88791,4.366088 -3.683924,2.203968 -9.016683,4.023498 -12.80623,4.369469 -0.859529,0.07847 -1.889289,0.193378 -2.288356,0.255347 l -0.725576,0.112669 0,3.301488 c 0,1.815818 0.06097,3.362458 0.135491,3.436978 0.143925,0.143923 1.315791,0.05889 4.217966,-0.30605 z M 48.536731,77.727738 c -0.0018,-1.68836 -0.08243,-3.194147 -0.178999,-3.346194 -0.09657,-0.152049 -1.068037,-0.432081 -2.158816,-0.622299 -3.306335,-0.576576 -6.606114,-1.860707 -8.998892,-3.501976 -0.956292,-0.655947 -0.961516,-0.656747 -1.993245,-0.305202 -1.215434,0.414141 -1.463683,0.425688 -2.566559,0.11939 -2.32567,-0.645901 -3.654524,-3.309873 -2.7413,-5.495525 0.33284,-0.796597 0.327134,-0.817235 -0.754227,-2.727693 -1.873631,-3.310178 -3.031384,-6.82058 -3.303991,-10.017987 l -0.137999,-1.618592 -3.461353,0 -3.461352,0 0.13613,2.065101 c 0.760451,11.536042 8.517186,22.04029 19.465955,26.360993 3.128903,1.234756 6.694206,2.060343 9.209235,2.132506 l 0.948831,0.02722 -0.0034,-3.069745 z m 0.226672,-16.799877 0,-10.492947 -10.125294,0 -10.125292,0 0.09437,1.172084 c 0.270975,3.365428 1.382278,7.005589 2.859033,9.364987 l 0.796163,1.272019 1.06955,-0.126672 c 1.399005,-0.165692 2.858877,0.464748 3.734839,1.612878 0.564452,0.739828 0.648119,1.044655 0.666026,2.426512 l 0.02047,1.580391 1.402454,0.855008 c 2.565378,1.563985 6.264204,2.76455 8.658838,2.810485 l 0.948839,0.0182 0,-10.492946 z M 16.486437,46.137271 c 0.341202,-3.619415 1.533417,-7.466406 3.53951,-11.421153 1.280596,-2.524525 1.333785,-2.693198 1.056009,-3.348813 -0.834908,-1.970573 -0.349509,-3.969245 1.262478,-5.198351 0.731365,-0.557651 1.011881,-0.62829 2.540043,-0.639629 l 1.717881,-0.01275 1.201524,-1.056781 c 5.118768,-4.502128 12.321403,-7.587507 19.006386,-8.141729 l 1.841508,-0.152671 0.06167,-3.411443 0.06166,-3.4114438 -1.512817,0.1383256 c -7.989506,0.7305262 -14.66467,3.1172112 -20.87495,7.4637772 -2.689614,1.882457 -7.670954,6.85779 -9.613696,9.602104 -1.864651,2.634002 -4.370099,7.61497 -5.390294,10.716201 -0.912615,2.774203 -1.6135066,6.097355 -1.8246189,8.6511 l -0.1522614,1.841847 3.4636923,0 3.463691,0 0.152585,-1.618593 z m 9.505039,0.865829 c 0,-1.527805 1.113634,-5.162863 2.334234,-7.619268 3.594957,-7.234695 10.448771,-12.158962 18.484219,-13.280374 l 1.953474,-0.272624 0,-3.460038 0,-3.460039 -1.618593,0.153357 c -6.511286,0.616929 -12.870753,3.411903 -17.877021,7.856916 -0.738806,0.655982 -0.782807,0.764762 -0.586377,1.449679 0.542284,1.890829 -0.07795,3.798684 -1.552052,4.774202 -0.979607,0.648274 -2.763559,0.986022 -3.019627,0.571693 -0.303734,-0.491451 -0.565424,-0.221682 -1.545138,1.592839 -1.842302,3.412114 -3.493999,8.863876 -3.493999,11.532659 l 0,0.913762 3.46044,0 3.46044,0 0,-0.752764 z m 22.771927,-8.876004 0,-9.628766 -1.331847,0.150681 c -7.013104,0.793443 -13.611101,5.45644 -16.835802,11.89835 -0.815179,1.628467 -1.74326,4.520388 -2.008863,6.259672 l -0.144897,0.948831 10.160705,0 10.160704,0 0,-9.628768 z m 41.876556,8.010175 c -0.217858,-2.30587 -1.137433,-6.742833 -1.87277,-9.036151 -0.513871,-1.602623 -0.70833,-1.956821 -1.068655,-1.946491 -0.242262,0.0069 -7.141679,2.568785 -15.332038,5.692982 -14.711508,5.611675 -14.89159,5.687778 -14.893871,6.294304 l -0.0023,0.613949 16.661284,0 16.661283,0 -0.152924,-1.618593 z m -35.648481,-9.13885 c 1.358926,-4.074746 2.439331,-7.440071 2.400902,-7.4785 -0.177172,-0.177174 -3.527773,-0.928592 -4.777842,-1.071499 l -1.395339,-0.159513 0,8.05907 0,8.059072 0.650752,0 0.650753,0 2.470774,-7.40863 z m 4.29734,-13.01889 1.021919,-3.236946 -1.476023,-0.432738 c -1.811851,-0.531195 -4.36234,-1.041664 -6.220176,-1.244942 l -1.395339,-0.152673 0,3.459301 0,3.459301 1.941224,0.275557 c 1.067673,0.151556 2.549523,0.451939 3.292999,0.667517 0.743477,0.215577 1.455658,0.403347 1.582627,0.417264 0.126967,0.01391 0.690715,-1.43132 1.252769,-3.211641 z m 3.078967,-9.126338 c 0.516702,-1.704031 0.855854,-3.181841 0.753673,-3.284022 C 62.542459,10.990172 55.923062,9.6760268 52.893605,9.538642 l -1.562779,-0.070872 -0.06148,3.3771056 c -0.06922,3.802533 -0.145896,3.645243 1.780368,3.652353 1.051315,0.0039 5.016849,0.773449 6.764771,1.312801 0.736739,0.227333 1.401246,0.352148 1.476684,0.277367 0.07544,-0.07478 0.559912,-1.530174 1.076616,-3.234204 z"
     id="path4158"
     inkscape:connector-curvature="0" />
  <path
     style="color:#000000;clip-rule:nonzero;display:inline;overflow:visible;visibility:visible;opacity:0.91799999;isolation:auto;mix-blend-mode:normal;color-interpolation:sRGB;color-interpolation-filters:linearRGB;solid-color:#000000;solid-opacity:1;fill:#000000;fill-opacity:1;fill-rule:nonzero;stroke:none;stroke-width:10.24300003;stroke-linecap:butt;stroke-linejoin:miter;stroke-miterlimit:4;stroke-dasharray:10.24300003, 20.48600006;stroke-dashoffset:0;stroke-opacity:1;color-rendering:auto;image-rendering:auto;shape-rendering:auto;text-rendering:auto;enable-background:accumulate"
     d="m 40.30716,43.518372 c -3.059391,-0.741803 -4.103638,-4.68756 -1.839715,-6.951483 2.997969,-2.997969 8.058234,-0.08143 6.956649,4.009546 -0.590749,2.193874 -2.848512,3.491955 -5.116934,2.941937 z"
     id="path4160"
     inkscape:connector-curvature="0" />
</svg>
