<?xml version="1.0" encoding="UTF-8" standalone="no"?>
<!-- Created with Inkscape (http://www.inkscape.org/) -->

<svg
   xmlns:dc="http://purl.org/dc/elements/1.1/"
   xmlns:cc="http://creativecommons.org/ns#"
   xmlns:rdf="http://www.w3.org/1999/02/22-rdf-syntax-ns#"
   xmlns:svg="http://www.w3.org/2000/svg"
   xmlns="http://www.w3.org/2000/svg"
   xmlns:xlink="http://www.w3.org/1999/xlink"
   xmlns:sodipodi="http://sodipodi.sourceforge.net/DTD/sodipodi-0.dtd"
   xmlns:inkscape="http://www.inkscape.org/namespaces/inkscape"
   version="1.1"
   width="100"
   height="100"
   id="svg5020"
   viewBox="0 0 100 100"
   preserveAspectRatio="none"
   inkscape:version="0.91 r13725"
   sodipodi:docname="radar.svg">
  <metadata
     id="metadata19">
    <rdf:RDF>
      <cc:Work
         rdf:about="">
        <dc:format>image/svg+xml</dc:format>
        <dc:type
           rdf:resource="http://purl.org/dc/dcmitype/StillImage" />
        <dc:title />
      </cc:Work>
    </rdf:RDF>
  </metadata>
  <sodipodi:namedview
     pagecolor="#ffffff"
     bordercolor="#666666"
     borderopacity="1"
     objecttolerance="10"
     gridtolerance="10"
     guidetolerance="10"
     inkscape:pageopacity="0"
     inkscape:pageshadow="2"
     inkscape:window-width="1920"
     inkscape:window-height="1015"
     id="namedview17"
     showgrid="false"
     inkscape:zoom="4.4791993"
     inkscape:cx="20.990582"
     inkscape:cy="46.729758"
     inkscape:window-x="0"
     inkscape:window-y="0"
     inkscape:window-maximized="1"
     inkscape:current-layer="svg5020"
     showguides="true"
     inkscape:guide-bbox="true">
    <sodipodi:guide
       orientation="0,1"
       position="106.26899,0.44650838"
       id="guide3932" />
    <sodipodi:guide
       orientation="1,0"
       position="99.571368,-8.4836591"
       id="guide3934" />
    <sodipodi:guide
       orientation="1,0"
       position="0.22325419,68.539036"
       id="guide3946" />
  </sodipodi:namedview>
  <defs
     id="defs5022">
    <filter
       x="-0.26370296"
       y="-0.29216129"
       width="1.5274059"
       height="1.5843226"
       color-interpolation-filters="sRGB"
       id="filter20257">
      <feGaussianBlur
         stdDeviation="8.4844688"
         id="feGaussianBlur20259" />
    </filter>
    <linearGradient
       x1="302.36649"
       y1="85.341019"
       x2="273.78458"
       y2="109.91143"
       id="linearGradient20265"
       xlink:href="#linearGradient13263"
       gradientUnits="userSpaceOnUse"
       gradientTransform="translate(7.0201173,-1.0028739)" />
    <linearGradient
       id="linearGradient13263">
      <stop
         id="stop1"
         style="stop-color:#a9c3e4;stop-opacity:1"
         offset="0" />
      <stop
         id="stop2"
         style="stop-color:#3465a4;stop-opacity:1"
         offset="1" />
    </linearGradient>
    <linearGradient
       inkscape:collect="always"
       xlink:href="#linearGradient13263"
       id="linearGradient3895"
       gradientUnits="userSpaceOnUse"
       gradientTransform="translate(7.0201173,-1.0028739)"
       x1="302.36649"
       y1="85.341019"
       x2="273.78458"
       y2="109.91143" />
    <linearGradient
       inkscape:collect="always"
       xlink:href="#linearGradient13263"
       id="linearGradient3903"
       gradientUnits="userSpaceOnUse"
       gradientTransform="translate(7.0201173,-1.0028739)"
       x1="302.36649"
       y1="85.341019"
       x2="273.78458"
       y2="109.91143" />
    <linearGradient
       inkscape:collect="always"
       xlink:href="#linearGradient13263"
       id="linearGradient3910"
       gradientUnits="userSpaceOnUse"
       gradientTransform="translate(7.0201173,-1.0028739)"
       x1="302.36649"
       y1="85.341019"
       x2="273.78458"
       y2="109.91143" />
    <linearGradient
       inkscape:collect="always"
       xlink:href="#linearGradient13263"
       id="linearGradient3913"
       gradientUnits="userSpaceOnUse"
       gradientTransform="matrix(1.0353074,0,0,1.1486622,-226.39584,-83.999193)"
       x1="302.36649"
       y1="85.341019"
       x2="273.78458"
       y2="109.91143" />
    <linearGradient
       inkscape:collect="always"
       xlink:href="#linearGradient13263"
       id="linearGradient3930"
       gradientUnits="userSpaceOnUse"
       gradientTransform="matrix(1.0353074,0,0,1.1486622,-226.39584,-83.999193)"
       x1="302.36649"
       y1="85.341019"
       x2="273.78458"
       y2="109.91143" />
    <linearGradient
       inkscape:collect="always"
       xlink:href="#linearGradient13263"
       id="linearGradient3937"
       gradientUnits="userSpaceOnUse"
       gradientTransform="matrix(1.2223334,0,0,1.3561655,-277.20531,-108.66092)"
       x1="302.36649"
       y1="85.341019"
       x2="273.78458"
       y2="109.91143" />
    <linearGradient
       inkscape:collect="always"
       xlink:href="#linearGradient13263"
       id="linearGradient3944"
       gradientUnits="userSpaceOnUse"
       gradientTransform="matrix(1.2223334,0,0,1.3561655,-277.20531,-108.66092)"
       x1="302.36649"
       y1="85.341019"
       x2="273.78458"
       y2="109.91143" />
    <linearGradient
       inkscape:collect="always"
       xlink:href="#linearGradient13263"
       id="linearGradient3949"
       gradientUnits="userSpaceOnUse"
       gradientTransform="matrix(1.234087,0,0,1.369206,-280.09067,-109.84092)"
       x1="302.36649"
       y1="85.341019"
       x2="273.78458"
       y2="109.91143" />
    <linearGradient
       inkscape:collect="always"
       xlink:href="#linearGradient13263"
       id="linearGradient3967"
       gradientUnits="userSpaceOnUse"
       gradientTransform="matrix(1.234087,0,0,1.369206,-280.09067,-109.84092)"
       x1="302.36649"
       y1="85.341019"
       x2="273.78458"
       y2="109.91143" />
    <linearGradient
       inkscape:collect="always"
       xlink:href="#linearGradient13263"
       id="linearGradient3975"
       gradientUnits="userSpaceOnUse"
       gradientTransform="matrix(1.234087,0,0,1.369206,-280.09067,-109.84092)"
       x1="302.36649"
       y1="85.341019"
       x2="273.78458"
       y2="109.91143" />
    <linearGradient
       inkscape:collect="always"
       xlink:href="#linearGradient13263"
       id="linearGradient3981"
       gradientUnits="userSpaceOnUse"
       gradientTransform="matrix(1.234087,0,0,1.369206,-280.09067,-109.84092)"
       x1="302.36649"
       y1="85.341019"
       x2="273.78458"
       y2="109.91143" />
    <linearGradient
       inkscape:collect="always"
       xlink:href="#linearGradient13263"
       id="linearGradient3984"
       gradientUnits="userSpaceOnUse"
       gradientTransform="matrix(1.1823136,0,0,1.311764,-268.33186,-100.78716)"
       x1="302.36649"
       y1="85.341019"
       x2="273.78458"
       y2="109.91143" />
  </defs>
  <rect
     width="100"
     height="100"
     x="-0.0098983888"
     y="0.0098999729"
     id="border"
     style="opacity:0.64285715;fill:none;stroke:none"
     inkscape:export-filename="C:\Users\tempadmin\Desktop\Forme SVG\png\square_after_1.png"
     inkscape:export-xdpi="90"
     inkscape:export-ydpi="90" />
  <rect
     style="fill:none;fill-rule:evenodd;stroke:#000000;stroke-width:0px;stroke-linecap:butt;stroke-linejoin:miter;stroke-opacity:1"
     id="externalBorder"
     width="99"
     height="99"
     x="0.2"
     y="0.2" />
  <path
     inkscape:connector-curvature="0"
     d="m 46.176757,39.486083 c 0,2.676269 -2.102783,4.779053 -4.779053,4.779053 -2.67627,0 -4.779053,-2.102784 -4.779053,-4.779053 0,-2.67627 2.102783,-4.779053 4.779053,-4.779053 2.67627,0 4.779053,2.102783 4.779053,4.779053 z M 95.87891,50 C 95.87891,75.424562 75.424563,95.87891 50,95.87891 24.575437,95.87891 4.1210903,75.424562 4.1210903,50 4.1210903,24.575437 24.766599,4.1210897 50,4.1210897 75.233401,4.1210897 95.87891,24.766599 95.87891,50 Z M 48.088379,84.21802 C 30.310301,83.26221 16.164304,68.733888 15.78198,50.95581 l -5.926026,0 c 0.573486,21.027834 17.204591,38.041263 38.232425,39.188236 l 0,-5.926026 z m 0,-9.558106 C 43.69165,74.27759 39.486083,72.748293 36.045165,70.263185 c -0.764649,0.382324 -1.338135,0.573486 -2.293946,0.573486 -2.67627,0 -4.779053,-2.102783 -4.779053,-4.779053 0,-0.764648 0.191162,-1.529297 0.573486,-2.293945 -2.485107,-3.823243 -4.205566,-8.219972 -4.396729,-12.999025 l -5.734863,0 c 0.382324,15.675295 12.999024,28.483157 28.483157,29.438968 l 0,-5.543702 z m 0,-23.704104 -18.925051,0 c 0.191162,4.014405 1.338135,7.646485 3.440918,10.705079 0.382325,-0.191162 0.764649,-0.191162 1.146973,-0.191162 2.67627,0 4.779053,2.102784 4.779053,4.779053 0,0.382325 0,0.764649 -0.191162,1.146973 2.867432,1.911621 6.117188,3.249756 9.749269,3.440918 l 0,-19.880861 z m 0,-21.792482 c -9.749269,0.95581 -17.586916,8.411133 -18.925051,17.96924 l 18.925051,0 0,-17.96924 z m 0,-9.558106 c -7.264161,0.382324 -13.763673,3.440918 -18.925051,8.219971 0.191162,0.573486 0.382324,1.146973 0.382324,1.911621 0,2.67627 -2.102783,4.779053 -4.779053,4.779053 -0.382324,0 -0.764648,0 -0.95581,-0.191162 -2.293946,3.823243 -3.823243,8.219972 -4.205567,12.807863 l 5.734864,0 C 26.67822,35.471678 36.236327,26.295896 48.088379,25.340085 l 0,-5.734863 z m 0,-9.558107 C 27.825193,11.002926 11.385251,27.060544 10.047116,47.132568 l 5.734864,0 c 0.382324,-5.543702 2.293945,-10.705079 4.970215,-15.101808 -0.382325,-0.764649 -0.764649,-1.529297 -0.764649,-2.485108 0,-2.67627 2.102783,-4.779053 4.779053,-4.779053 0.573487,0 0.955811,0.191162 1.529297,0.191162 5.734864,-5.352539 13.381349,-8.98462 21.792483,-9.366944 l 0,-5.543702 z m 9.558106,37.085453 32.497561,0 C 89.761722,43.118163 88.997074,39.294921 87.658939,35.66284 L 57.646485,47.132568 Z M 51.911621,15.781979 c 3.058594,0.191162 6.117188,0.764648 8.98462,1.720459 L 62.6167,11.958736 C 59.175782,10.811764 55.543702,10.238277 51.911621,10.047115 l 0,5.734864 z m 0,9.558106 c 2.102784,0.191162 4.014405,0.573487 5.926026,1.146973 l 1.720459,-5.352539 C 57.072999,20.36987 54.587891,19.796384 51.720459,19.605222 l 0,5.734863 z m 0,18.925051 4.779053,-14.33716 C 55.161377,29.35449 53.63208,29.163328 51.911621,28.972166 l 0,15.29297 z m 38.232425,6.690674 -38.232425,0 0,20.072024 c 4.970215,-0.382325 9.558107,-2.67627 12.999025,-6.117188 l 2.67627,2.676269 c -4.014405,4.014405 -9.558107,6.690675 -15.675295,7.264161 l 0,5.734864 c 7.646485,-0.382324 14.528322,-3.823243 19.689699,-8.793458 l 2.67627,2.67627 c -5.734864,5.734864 -13.763673,9.558106 -22.365969,9.94043 l 0,5.734864 C 72.939455,89.188236 89.57056,71.983644 90.144046,50.95581 Z"
     id="path6" />
</svg>
