<?xml version="1.0" encoding="UTF-8" standalone="no"?>
<!-- Created with Inkscape (http://www.inkscape.org/) -->

<svg
   xmlns:dc="http://purl.org/dc/elements/1.1/"
   xmlns:cc="http://creativecommons.org/ns#"
   xmlns:rdf="http://www.w3.org/1999/02/22-rdf-syntax-ns#"
   xmlns:svg="http://www.w3.org/2000/svg"
   xmlns="http://www.w3.org/2000/svg"
   xmlns:xlink="http://www.w3.org/1999/xlink"
   xmlns:sodipodi="http://sodipodi.sourceforge.net/DTD/sodipodi-0.dtd"
   xmlns:inkscape="http://www.inkscape.org/namespaces/inkscape"
   version="1.1"
   width="100"
   height="100"
   id="svg5020"
   viewBox="0 0 100 100"
   preserveAspectRatio="none"
   inkscape:version="0.91 r13725"
   sodipodi:docname="sensor.svg">
  <metadata
     id="metadata19">
    <rdf:RDF>
      <cc:Work
         rdf:about="">
        <dc:format>image/svg+xml</dc:format>
        <dc:type
           rdf:resource="http://purl.org/dc/dcmitype/StillImage" />
        <dc:title />
      </cc:Work>
    </rdf:RDF>
  </metadata>
  <sodipodi:namedview
     pagecolor="#ffffff"
     bordercolor="#666666"
     borderopacity="1"
     objecttolerance="10"
     gridtolerance="10"
     guidetolerance="10"
     inkscape:pageopacity="0"
     inkscape:pageshadow="2"
     inkscape:window-width="1920"
     inkscape:window-height="1015"
     id="namedview17"
     showgrid="false"
     inkscape:zoom="4.4791993"
     inkscape:cx="20.990582"
     inkscape:cy="46.729758"
     inkscape:window-x="0"
     inkscape:window-y="0"
     inkscape:window-maximized="1"
     inkscape:current-layer="svg5020"
     showguides="true"
     inkscape:guide-bbox="true">
    <sodipodi:guide
       orientation="0,1"
       position="106.26899,0.44650838"
       id="guide3932" />
    <sodipodi:guide
       orientation="1,0"
       position="99.571368,-8.4836591"
       id="guide3934" />
    <sodipodi:guide
       orientation="1,0"
       position="0.22325419,68.539036"
       id="guide3946" />
  </sodipodi:namedview>
  <defs
     id="defs5022">
    <filter
       x="-0.26370296"
       y="-0.29216129"
       width="1.5274059"
       height="1.5843226"
       color-interpolation-filters="sRGB"
       id="filter20257">
      <feGaussianBlur
         stdDeviation="8.4844688"
         id="feGaussianBlur20259" />
    </filter>
    <linearGradient
       x1="302.36649"
       y1="85.341019"
       x2="273.78458"
       y2="109.91143"
       id="linearGradient20265"
       xlink:href="#linearGradient13263"
       gradientUnits="userSpaceOnUse"
       gradientTransform="translate(7.0201173,-1.0028739)" />
    <linearGradient
       id="linearGradient13263">
      <stop
         id="stop1"
         style="stop-color:#a9c3e4;stop-opacity:1"
         offset="0" />
      <stop
         id="stop2"
         style="stop-color:#3465a4;stop-opacity:1"
         offset="1" />
    </linearGradient>
    <linearGradient
       inkscape:collect="always"
       xlink:href="#linearGradient13263"
       id="linearGradient3895"
       gradientUnits="userSpaceOnUse"
       gradientTransform="translate(7.0201173,-1.0028739)"
       x1="302.36649"
       y1="85.341019"
       x2="273.78458"
       y2="109.91143" />
    <linearGradient
       inkscape:collect="always"
       xlink:href="#linearGradient13263"
       id="linearGradient3903"
       gradientUnits="userSpaceOnUse"
       gradientTransform="translate(7.0201173,-1.0028739)"
       x1="302.36649"
       y1="85.341019"
       x2="273.78458"
       y2="109.91143" />
    <linearGradient
       inkscape:collect="always"
       xlink:href="#linearGradient13263"
       id="linearGradient3910"
       gradientUnits="userSpaceOnUse"
       gradientTransform="translate(7.0201173,-1.0028739)"
       x1="302.36649"
       y1="85.341019"
       x2="273.78458"
       y2="109.91143" />
    <linearGradient
       inkscape:collect="always"
       xlink:href="#linearGradient13263"
       id="linearGradient3913"
       gradientUnits="userSpaceOnUse"
       gradientTransform="matrix(1.0353074,0,0,1.1486622,-226.39584,-83.999193)"
       x1="302.36649"
       y1="85.341019"
       x2="273.78458"
       y2="109.91143" />
    <linearGradient
       inkscape:collect="always"
       xlink:href="#linearGradient13263"
       id="linearGradient3930"
       gradientUnits="userSpaceOnUse"
       gradientTransform="matrix(1.0353074,0,0,1.1486622,-226.39584,-83.999193)"
       x1="302.36649"
       y1="85.341019"
       x2="273.78458"
       y2="109.91143" />
    <linearGradient
       inkscape:collect="always"
       xlink:href="#linearGradient13263"
       id="linearGradient3937"
       gradientUnits="userSpaceOnUse"
       gradientTransform="matrix(1.2223334,0,0,1.3561655,-277.20531,-108.66092)"
       x1="302.36649"
       y1="85.341019"
       x2="273.78458"
       y2="109.91143" />
    <linearGradient
       inkscape:collect="always"
       xlink:href="#linearGradient13263"
       id="linearGradient3944"
       gradientUnits="userSpaceOnUse"
       gradientTransform="matrix(1.2223334,0,0,1.3561655,-277.20531,-108.66092)"
       x1="302.36649"
       y1="85.341019"
       x2="273.78458"
       y2="109.91143" />
    <linearGradient
       inkscape:collect="always"
       xlink:href="#linearGradient13263"
       id="linearGradient3949"
       gradientUnits="userSpaceOnUse"
       gradientTransform="matrix(1.234087,0,0,1.369206,-280.09067,-109.84092)"
       x1="302.36649"
       y1="85.341019"
       x2="273.78458"
       y2="109.91143" />
    <linearGradient
       inkscape:collect="always"
       xlink:href="#linearGradient13263"
       id="linearGradient3967"
       gradientUnits="userSpaceOnUse"
       gradientTransform="matrix(1.234087,0,0,1.369206,-280.09067,-109.84092)"
       x1="302.36649"
       y1="85.341019"
       x2="273.78458"
       y2="109.91143" />
    <linearGradient
       inkscape:collect="always"
       xlink:href="#linearGradient13263"
       id="linearGradient3975"
       gradientUnits="userSpaceOnUse"
       gradientTransform="matrix(1.234087,0,0,1.369206,-280.09067,-109.84092)"
       x1="302.36649"
       y1="85.341019"
       x2="273.78458"
       y2="109.91143" />
    <linearGradient
       inkscape:collect="always"
       xlink:href="#linearGradient13263"
       id="linearGradient3981"
       gradientUnits="userSpaceOnUse"
       gradientTransform="matrix(1.234087,0,0,1.369206,-280.09067,-109.84092)"
       x1="302.36649"
       y1="85.341019"
       x2="273.78458"
       y2="109.91143" />
    <linearGradient
       inkscape:collect="always"
       xlink:href="#linearGradient13263"
       id="linearGradient3984"
       gradientUnits="userSpaceOnUse"
       gradientTransform="matrix(1.1823136,0,0,1.311764,-268.33186,-100.78716)"
       x1="302.36649"
       y1="85.341019"
       x2="273.78458"
       y2="109.91143" />
  </defs>
  <rect
     width="100"
     height="100"
     x="-0.0098983888"
     y="0.0098999729"
     id="border"
     style="opacity:0.64285715;fill:none;stroke:none"
     inkscape:export-filename="C:\Users\tempadmin\Desktop\Forme SVG\png\square_after_1.png"
     inkscape:export-xdpi="90"
     inkscape:export-ydpi="90" />
  <rect
     style="fill:none;fill-rule:evenodd;stroke:#000000;stroke-width:0px;stroke-linecap:butt;stroke-linejoin:miter;stroke-opacity:1"
     id="externalBorder"
     width="99"
     height="99"
     x="0.2"
     y="0.2" />
  <g
     transform="matrix(1.0590336,0,0,1.0590336,-2.8987283,-3.0311075)"
     id="g4172">
    <g
       id="g4">
      <path
         inkscape:connector-curvature="0"
         id="path6"
         d="m 50.2,61.5 c -6.3,0 -11.5,-5.2 -11.5,-11.5 0,-6.3 5.2,-11.5 11.5,-11.5 6.3,0 11.5,5.2 11.5,11.5 0,6.3 -5.2,11.5 -11.5,11.5 z m 0,-20 c -4.7,0 -8.5,3.8 -8.5,8.5 0,4.7 3.8,8.5 8.5,8.5 4.7,0 8.5,-3.8 8.5,-8.5 0,-4.7 -3.8,-8.5 -8.5,-8.5 z" />
    </g>
    <g
       id="g8">
      <path
         inkscape:connector-curvature="0"
         id="path10"
         d="m 54.7,51.3 c -0.8,0 -1.5,-0.7 -1.5,-1.5 0,-1.7 -1.4,-3 -3,-3 -0.9,0 -1.6,0.3 -2.2,1 -0.6,0.6 -1.5,0.7 -2.1,0.1 -0.6,-0.6 -0.7,-1.5 -0.1,-2.1 1.1,-1.2 2.8,-2 4.4,-2 3.3,0 6,2.7 6,6 0,0.9 -0.7,1.5 -1.5,1.5 z" />
    </g>
    <g
       id="g12">
      <path
         inkscape:connector-curvature="0"
         id="path14"
         d="m 64.5,65.8 c -0.4,0 -0.8,-0.1 -1.1,-0.4 -0.6,-0.6 -0.6,-1.5 0,-2.1 7.3,-7.3 7.3,-19.2 0,-26.5 -0.6,-0.6 -0.6,-1.5 0,-2.1 0.6,-0.6 1.5,-0.6 2.1,0 8.5,8.5 8.5,22.3 0,30.8 -0.2,0.2 -0.6,0.3 -1,0.3 z" />
    </g>
    <g
       id="g16">
      <path
         inkscape:connector-curvature="0"
         id="path18"
         d="m 71.4,72.8 c -0.4,0 -0.8,-0.1 -1.1,-0.4 -0.6,-0.6 -0.6,-1.5 0,-2.1 11.1,-11.1 11.1,-29.2 0,-40.4 -0.6,-0.6 -0.6,-1.5 0,-2.1 0.6,-0.6 1.5,-0.6 2.1,0 12.4,12.2 12.4,32.2 0.1,44.5 -0.3,0.3 -0.7,0.5 -1.1,0.5 z" />
    </g>
    <g
       id="g20">
      <path
         inkscape:connector-curvature="0"
         id="path22"
         d="m 78.4,79.8 c -0.4,0 -0.8,-0.1 -1.1,-0.4 -0.6,-0.6 -0.6,-1.5 0,-2.1 15,-15 15,-39.4 0,-54.4 -0.6,-0.6 -0.6,-1.5 0,-2.1 0.6,-0.6 1.5,-0.6 2.1,0 16.2,16.2 16.2,42.5 0,58.6 -0.2,0.2 -0.6,0.4 -1,0.4 z" />
    </g>
    <g
       id="g24">
      <path
         inkscape:connector-curvature="0"
         id="path26"
         d="m 35.5,65.8 c -0.4,0 -0.8,-0.1 -1.1,-0.4 -8.5,-8.5 -8.5,-22.3 0,-30.8 0.6,-0.6 1.5,-0.6 2.1,0 0.6,0.6 0.6,1.5 0,2.1 -7.3,7.3 -7.3,19.2 0,26.5 0.6,0.6 0.6,1.5 0,2.1 -0.2,0.4 -0.6,0.5 -1,0.5 z" />
    </g>
    <g
       id="g28">
      <path
         inkscape:connector-curvature="0"
         id="path30"
         d="m 28.6,72.8 c -0.4,0 -0.8,-0.1 -1.1,-0.4 C 15.2,60 15.2,40 27.5,27.7 c 0.6,-0.6 1.5,-0.6 2.1,0 0.6,0.6 0.6,1.5 0,2.1 -11.1,11.1 -11.1,29.2 0,40.4 0.6,0.6 0.6,1.5 0,2.1 -0.2,0.3 -0.6,0.5 -1,0.5 z" />
    </g>
    <g
       id="g32">
      <path
         inkscape:connector-curvature="0"
         id="path34"
         d="m 21.6,79.8 c -0.4,0 -0.8,-0.1 -1.1,-0.4 -16.2,-16.2 -16.2,-42.5 0,-58.6 0.6,-0.6 1.5,-0.6 2.1,0 0.6,0.6 0.6,1.5 0,2.1 -15,15 -15,39.4 0,54.4 0.6,0.6 0.6,1.5 0,2.1 -0.2,0.2 -0.6,0.4 -1,0.4 z" />
    </g>
  </g>
</svg>
